<svg width="3000" height="1000" xmlns="http://www.w3.org/2000/svg" version="1.1">


<!-- internal style sheet -->
<style type="text/css"><![CDATA[
 rect.background{fill:white}
 rect{fill:none; stroke:rgb(25,25,25); stroke-width:2}
 text{font-family:Helvetica; text-anchor:middle; fill:rgb(25,25,25)}
 line{stroke:rgb(25,25,25); stroke-width:4}
 path{fill:none; stroke:rgb(25,25,25); stroke-width:2}
 circle{fill:white; stroke:black; stroke-width:2}

 path.p0{fill:rgb(0,102,255); stroke:rgb(25,25,25); stroke-width:2}
 path.ps0{fill:rgb(0,77,191); stroke:rgb(20,20,20); stroke-width:2}
 rect.r0{fill:rgb(0,102,255); stroke:rgb(25,25,25); stroke-width:2}
 path.p1{fill:rgb(51,255,0); stroke:rgb(25,25,25); stroke-width:2}
 path.ps1{fill:rgb(38,191,0); stroke:rgb(20,20,20); stroke-width:2}
 rect.r1{fill:rgb(51,255,0); stroke:rgb(25,25,25); stroke-width:2}
 path.p2{fill:rgb(255,0,0); stroke:rgb(25,25,25); stroke-width:2}
 path.ps2{fill:rgb(191,0,0); stroke:rgb(20,20,20); stroke-width:2}
 rect.r2{fill:rgb(255,0,0); stroke:rgb(25,25,25); stroke-width:2}
]]></style>

 <rect class="background" width="3000" height="1000"/>
  <!-- cells -->
  <path class="p0" d="M 240 920 L 290 920 L 290 836 L 240 836 L 240 920"/>
  <line x1="240" y1="920" x2="240" y2="836"/>
  <line x1="240" y1="920" x2="290" y2="920"/>
  <path class="p0" d="M 290 920 L 341 920 L 341 836 L 290 836 L 290 920"/>
  <line x1="290" y1="920" x2="341" y2="920"/>
  <path class="p0" d="M 341 920 L 391 920 L 391 836 L 341 836 L 341 920"/>
  <line x1="341" y1="920" x2="391" y2="920"/>
  <path class="p0" d="M 391 920 L 442 920 L 442 836 L 391 836 L 391 920"/>
  <line x1="391" y1="920" x2="442" y2="920"/>
  <path class="p0" d="M 442 920 L 492 920 L 492 836 L 442 836 L 442 920"/>
  <line x1="442" y1="920" x2="492" y2="920"/>
  <path class="p0" d="M 492 920 L 542 920 L 542 836 L 492 836 L 492 920"/>
  <line x1="492" y1="920" x2="542" y2="920"/>
  <path class="p0" d="M 694 920 L 744 920 L 744 836 L 694 836 L 694 920"/>
  <line x1="744" y1="920" x2="744" y2="836"/>
  <line x1="694" y1="920" x2="744" y2="920"/>
  <path class="p0" d="M 240 836 L 290 836 L 290 752 L 240 752 L 240 836"/>
  <line x1="240" y1="836" x2="240" y2="752"/>
  <path class="p0" d="M 290 836 L 341 836 L 341 752 L 290 752 L 290 836"/>
  <path class="p0" d="M 341 836 L 391 836 L 391 752 L 341 752 L 341 836"/>
  <path class="p0" d="M 391 836 L 442 836 L 442 752 L 391 752 L 391 836"/>
  <path class="p0" d="M 442 836 L 492 836 L 492 752 L 442 752 L 442 836"/>
  <path class="p0" d="M 492 836 L 542 836 L 542 752 L 492 752 L 492 836"/>
  <path class="p0" d="M 240 752 L 290 752 L 290 668 L 240 668 L 240 752"/>
  <line x1="240" y1="752" x2="240" y2="668"/>
  <path class="p0" d="M 290 752 L 341 752 L 341 668 L 290 668 L 290 752"/>
  <path class="p0" d="M 341 752 L 391 752 L 391 668 L 341 668 L 341 752"/>
  <path class="p0" d="M 391 752 L 442 752 L 442 668 L 391 668 L 391 752"/>
  <path class="p0" d="M 442 752 L 492 752 L 492 668 L 442 668 L 442 752"/>
  <path class="p0" d="M 492 752 L 542 752 L 542 668 L 492 668 L 492 752"/>
  <path class="p0" d="M 996 752 L 1046 752 L 1046 668 L 996 668 L 996 752"/>
  <line x1="996" y1="752" x2="1046" y2="752"/>
  <path class="p0" d="M 1046 752 L 1097 752 L 1097 668 L 1046 668 L 1046 752"/>
  <line x1="1046" y1="752" x2="1097" y2="752"/>
  <path class="p0" d="M 1097 752 L 1147 752 L 1147 668 L 1097 668 L 1097 752"/>
  <line x1="1097" y1="752" x2="1147" y2="752"/>
  <path class="p0" d="M 1147 752 L 1198 752 L 1198 668 L 1147 668 L 1147 752"/>
  <line x1="1147" y1="752" x2="1198" y2="752"/>
  <path class="p0" d="M 1198 752 L 1248 752 L 1248 668 L 1198 668 L 1198 752"/>
  <line x1="1198" y1="752" x2="1248" y2="752"/>
  <path class="p0" d="M 1248 752 L 1298 752 L 1298 668 L 1248 668 L 1248 752"/>
  <line x1="1248" y1="752" x2="1298" y2="752"/>
  <path class="p0" d="M 1298 752 L 1349 752 L 1349 668 L 1298 668 L 1298 752"/>
  <line x1="1298" y1="752" x2="1349" y2="752"/>
  <path class="p0" d="M 1349 752 L 1399 752 L 1399 668 L 1349 668 L 1349 752"/>
  <line x1="1349" y1="752" x2="1399" y2="752"/>
  <path class="p0" d="M 1399 752 L 1450 752 L 1450 668 L 1399 668 L 1399 752"/>
  <line x1="1399" y1="752" x2="1450" y2="752"/>
  <path class="p0" d="M 1450 752 L 1500 752 L 1500 668 L 1450 668 L 1450 752"/>
  <line x1="1450" y1="752" x2="1500" y2="752"/>
  <path class="p0" d="M 1500 752 L 1550 752 L 1550 668 L 1500 668 L 1500 752"/>
  <line x1="1500" y1="752" x2="1550" y2="752"/>
  <path class="p0" d="M 1550 752 L 1601 752 L 1601 668 L 1550 668 L 1550 752"/>
  <line x1="1550" y1="752" x2="1601" y2="752"/>
  <path class="p0" d="M 1601 752 L 1651 752 L 1651 668 L 1601 668 L 1601 752"/>
  <line x1="1601" y1="752" x2="1651" y2="752"/>
  <path class="p0" d="M 1651 752 L 1702 752 L 1702 668 L 1651 668 L 1651 752"/>
  <line x1="1651" y1="752" x2="1702" y2="752"/>
  <path class="p0" d="M 1702 752 L 1752 752 L 1752 668 L 1702 668 L 1702 752"/>
  <line x1="1702" y1="752" x2="1752" y2="752"/>
  <path class="p0" d="M 1752 752 L 1802 752 L 1802 668 L 1752 668 L 1752 752"/>
  <line x1="1752" y1="752" x2="1802" y2="752"/>
  <path class="p0" d="M 1802 752 L 1853 752 L 1853 668 L 1802 668 L 1802 752"/>
  <line x1="1802" y1="752" x2="1853" y2="752"/>
  <path class="p0" d="M 1853 752 L 1903 752 L 1903 668 L 1853 668 L 1853 752"/>
  <line x1="1853" y1="752" x2="1903" y2="752"/>
  <path class="p0" d="M 1903 752 L 1954 752 L 1954 668 L 1903 668 L 1903 752"/>
  <line x1="1903" y1="752" x2="1954" y2="752"/>
  <path class="p0" d="M 1954 752 L 2004 752 L 2004 668 L 1954 668 L 1954 752"/>
  <line x1="1954" y1="752" x2="2004" y2="752"/>
  <path class="p0" d="M 2004 752 L 2054 752 L 2054 668 L 2004 668 L 2004 752"/>
  <line x1="2004" y1="752" x2="2054" y2="752"/>
  <path class="p0" d="M 2054 752 L 2105 752 L 2105 668 L 2054 668 L 2054 752"/>
  <line x1="2054" y1="752" x2="2105" y2="752"/>
  <path class="p0" d="M 2105 752 L 2155 752 L 2155 668 L 2105 668 L 2105 752"/>
  <line x1="2105" y1="752" x2="2155" y2="752"/>
  <path class="p0" d="M 2155 752 L 2206 752 L 2206 668 L 2155 668 L 2155 752"/>
  <line x1="2155" y1="752" x2="2206" y2="752"/>
  <path class="p0" d="M 2206 752 L 2256 752 L 2256 668 L 2206 668 L 2206 752"/>
  <line x1="2206" y1="752" x2="2256" y2="752"/>
  <path class="p0" d="M 2256 752 L 2306 752 L 2306 668 L 2256 668 L 2256 752"/>
  <line x1="2256" y1="752" x2="2306" y2="752"/>
  <path class="p0" d="M 2306 752 L 2357 752 L 2357 668 L 2306 668 L 2306 752"/>
  <line x1="2306" y1="752" x2="2357" y2="752"/>
  <path class="p0" d="M 2357 752 L 2407 752 L 2407 668 L 2357 668 L 2357 752"/>
  <line x1="2357" y1="752" x2="2407" y2="752"/>
  <path class="p0" d="M 2407 752 L 2458 752 L 2458 668 L 2407 668 L 2407 752"/>
  <line x1="2407" y1="752" x2="2458" y2="752"/>
  <path class="p0" d="M 2458 752 L 2508 752 L 2508 668 L 2458 668 L 2458 752"/>
  <line x1="2458" y1="752" x2="2508" y2="752"/>
  <path class="p0" d="M 2508 752 L 2558 752 L 2558 668 L 2508 668 L 2508 752"/>
  <line x1="2508" y1="752" x2="2558" y2="752"/>
  <path class="p0" d="M 2558 752 L 2609 752 L 2609 668 L 2558 668 L 2558 752"/>
  <line x1="2558" y1="752" x2="2609" y2="752"/>
  <path class="p0" d="M 2609 752 L 2659 752 L 2659 668 L 2609 668 L 2609 752"/>
  <line x1="2609" y1="752" x2="2659" y2="752"/>
  <path class="p0" d="M 2659 752 L 2710 752 L 2710 668 L 2659 668 L 2659 752"/>
  <line x1="2659" y1="752" x2="2710" y2="752"/>
  <path class="p0" d="M 2710 752 L 2760 752 L 2760 668 L 2710 668 L 2710 752"/>
  <line x1="2760" y1="752" x2="2760" y2="668"/>
  <line x1="2710" y1="752" x2="2760" y2="752"/>
  <path class="p0" d="M 240 668 L 290 668 L 290 584 L 240 584 L 240 668"/>
  <line x1="240" y1="668" x2="240" y2="584"/>
  <path class="p0" d="M 290 668 L 341 668 L 341 584 L 290 584 L 290 668"/>
  <path class="p0" d="M 341 668 L 391 668 L 391 584 L 341 584 L 341 668"/>
  <path class="p0" d="M 391 668 L 442 668 L 442 584 L 391 584 L 391 668"/>
  <path class="p0" d="M 442 668 L 492 668 L 492 584 L 442 584 L 442 668"/>
  <path class="p0" d="M 492 668 L 542 668 L 542 584 L 492 584 L 492 668"/>
  <path class="p0" d="M 542 668 L 593 668 L 593 584 L 542 584 L 542 668"/>
  <path class="p0" d="M 1097 668 L 1147 668 L 1147 584 L 1097 584 L 1097 668"/>
  <path class="p0" d="M 1147 668 L 1198 668 L 1198 584 L 1147 584 L 1147 668"/>
  <path class="p0" d="M 1198 668 L 1248 668 L 1248 584 L 1198 584 L 1198 668"/>
  <path class="p0" d="M 1248 668 L 1298 668 L 1298 584 L 1248 584 L 1248 668"/>
  <path class="p0" d="M 1298 668 L 1349 668 L 1349 584 L 1298 584 L 1298 668"/>
  <path class="p0" d="M 1349 668 L 1399 668 L 1399 584 L 1349 584 L 1349 668"/>
  <path class="p0" d="M 1399 668 L 1450 668 L 1450 584 L 1399 584 L 1399 668"/>
  <path class="p0" d="M 1450 668 L 1500 668 L 1500 584 L 1450 584 L 1450 668"/>
  <path class="p0" d="M 1500 668 L 1550 668 L 1550 584 L 1500 584 L 1500 668"/>
  <path class="p0" d="M 1550 668 L 1601 668 L 1601 584 L 1550 584 L 1550 668"/>
  <path class="p0" d="M 1601 668 L 1651 668 L 1651 584 L 1601 584 L 1601 668"/>
  <path class="p0" d="M 1651 668 L 1702 668 L 1702 584 L 1651 584 L 1651 668"/>
  <path class="p0" d="M 1702 668 L 1752 668 L 1752 584 L 1702 584 L 1702 668"/>
  <path class="p0" d="M 1752 668 L 1802 668 L 1802 584 L 1752 584 L 1752 668"/>
  <path class="p0" d="M 1802 668 L 1853 668 L 1853 584 L 1802 584 L 1802 668"/>
  <path class="p0" d="M 1853 668 L 1903 668 L 1903 584 L 1853 584 L 1853 668"/>
  <path class="p0" d="M 1903 668 L 1954 668 L 1954 584 L 1903 584 L 1903 668"/>
  <path class="p0" d="M 1954 668 L 2004 668 L 2004 584 L 1954 584 L 1954 668"/>
  <path class="p0" d="M 2004 668 L 2054 668 L 2054 584 L 2004 584 L 2004 668"/>
  <path class="p0" d="M 2054 668 L 2105 668 L 2105 584 L 2054 584 L 2054 668"/>
  <path class="p0" d="M 2105 668 L 2155 668 L 2155 584 L 2105 584 L 2105 668"/>
  <path class="p0" d="M 2155 668 L 2206 668 L 2206 584 L 2155 584 L 2155 668"/>
  <path class="p0" d="M 2206 668 L 2256 668 L 2256 584 L 2206 584 L 2206 668"/>
  <path class="p0" d="M 2256 668 L 2306 668 L 2306 584 L 2256 584 L 2256 668"/>
  <path class="p0" d="M 2306 668 L 2357 668 L 2357 584 L 2306 584 L 2306 668"/>
  <path class="p0" d="M 2357 668 L 2407 668 L 2407 584 L 2357 584 L 2357 668"/>
  <path class="p0" d="M 2407 668 L 2458 668 L 2458 584 L 2407 584 L 2407 668"/>
  <path class="p0" d="M 2458 668 L 2508 668 L 2508 584 L 2458 584 L 2458 668"/>
  <path class="p0" d="M 2508 668 L 2558 668 L 2558 584 L 2508 584 L 2508 668"/>
  <path class="p0" d="M 2558 668 L 2609 668 L 2609 584 L 2558 584 L 2558 668"/>
  <path class="p0" d="M 2609 668 L 2659 668 L 2659 584 L 2609 584 L 2609 668"/>
  <path class="p0" d="M 2659 668 L 2710 668 L 2710 584 L 2659 584 L 2659 668"/>
  <path class="p0" d="M 2710 668 L 2760 668 L 2760 584 L 2710 584 L 2710 668"/>
  <line x1="2760" y1="668" x2="2760" y2="584"/>
  <path class="p0" d="M 240 584 L 290 584 L 290 500 L 240 500 L 240 584"/>
  <line x1="240" y1="584" x2="240" y2="500"/>
  <path class="p0" d="M 290 584 L 341 584 L 341 500 L 290 500 L 290 584"/>
  <path class="p0" d="M 341 584 L 391 584 L 391 500 L 341 500 L 341 584"/>
  <path class="p0" d="M 391 584 L 442 584 L 442 500 L 391 500 L 391 584"/>
  <path class="p0" d="M 442 584 L 492 584 L 492 500 L 442 500 L 442 584"/>
  <path class="p0" d="M 492 584 L 542 584 L 542 500 L 492 500 L 492 584"/>
  <path class="p0" d="M 542 584 L 593 584 L 593 500 L 542 500 L 542 584"/>
  <path class="p0" d="M 593 584 L 643 584 L 643 500 L 593 500 L 593 584"/>
  <path class="p0" d="M 1248 584 L 1298 584 L 1298 500 L 1248 500 L 1248 584"/>
  <path class="p0" d="M 1298 584 L 1349 584 L 1349 500 L 1298 500 L 1298 584"/>
  <path class="p0" d="M 1349 584 L 1399 584 L 1399 500 L 1349 500 L 1349 584"/>
  <path class="p0" d="M 1399 584 L 1450 584 L 1450 500 L 1399 500 L 1399 584"/>
  <path class="p0" d="M 1450 584 L 1500 584 L 1500 500 L 1450 500 L 1450 584"/>
  <path class="p0" d="M 1500 584 L 1550 584 L 1550 500 L 1500 500 L 1500 584"/>
  <path class="p0" d="M 1550 584 L 1601 584 L 1601 500 L 1550 500 L 1550 584"/>
  <path class="p0" d="M 1601 584 L 1651 584 L 1651 500 L 1601 500 L 1601 584"/>
  <path class="p0" d="M 1651 584 L 1702 584 L 1702 500 L 1651 500 L 1651 584"/>
  <path class="p0" d="M 1702 584 L 1752 584 L 1752 500 L 1702 500 L 1702 584"/>
  <path class="p0" d="M 1752 584 L 1802 584 L 1802 500 L 1752 500 L 1752 584"/>
  <path class="p0" d="M 1802 584 L 1853 584 L 1853 500 L 1802 500 L 1802 584"/>
  <path class="p0" d="M 1853 584 L 1903 584 L 1903 500 L 1853 500 L 1853 584"/>
  <path class="p0" d="M 1903 584 L 1954 584 L 1954 500 L 1903 500 L 1903 584"/>
  <path class="p0" d="M 1954 584 L 2004 584 L 2004 500 L 1954 500 L 1954 584"/>
  <path class="p0" d="M 2004 584 L 2054 584 L 2054 500 L 2004 500 L 2004 584"/>
  <path class="p0" d="M 2054 584 L 2105 584 L 2105 500 L 2054 500 L 2054 584"/>
  <path class="p0" d="M 2105 584 L 2155 584 L 2155 500 L 2105 500 L 2105 584"/>
  <path class="p0" d="M 2155 584 L 2206 584 L 2206 500 L 2155 500 L 2155 584"/>
  <path class="p0" d="M 2206 584 L 2256 584 L 2256 500 L 2206 500 L 2206 584"/>
  <path class="p0" d="M 2256 584 L 2306 584 L 2306 500 L 2256 500 L 2256 584"/>
  <path class="p0" d="M 2306 584 L 2357 584 L 2357 500 L 2306 500 L 2306 584"/>
  <path class="p0" d="M 2357 584 L 2407 584 L 2407 500 L 2357 500 L 2357 584"/>
  <path class="p0" d="M 2407 584 L 2458 584 L 2458 500 L 2407 500 L 2407 584"/>
  <path class="p0" d="M 2458 584 L 2508 584 L 2508 500 L 2458 500 L 2458 584"/>
  <path class="p0" d="M 2508 584 L 2558 584 L 2558 500 L 2508 500 L 2508 584"/>
  <path class="p0" d="M 2558 584 L 2609 584 L 2609 500 L 2558 500 L 2558 584"/>
  <path class="p0" d="M 2609 584 L 2659 584 L 2659 500 L 2609 500 L 2609 584"/>
  <path class="p0" d="M 2659 584 L 2710 584 L 2710 500 L 2659 500 L 2659 584"/>
  <path class="p0" d="M 2710 584 L 2760 584 L 2760 500 L 2710 500 L 2710 584"/>
  <line x1="2760" y1="584" x2="2760" y2="500"/>
  <path class="p0" d="M 240 500 L 290 500 L 290 416 L 240 416 L 240 500"/>
  <line x1="240" y1="500" x2="240" y2="416"/>
  <path class="p0" d="M 290 500 L 341 500 L 341 416 L 290 416 L 290 500"/>
  <path class="p0" d="M 341 500 L 391 500 L 391 416 L 341 416 L 341 500"/>
  <path class="p0" d="M 391 500 L 442 500 L 442 416 L 391 416 L 391 500"/>
  <path class="p0" d="M 442 500 L 492 500 L 492 416 L 442 416 L 442 500"/>
  <path class="p0" d="M 492 500 L 542 500 L 542 416 L 492 416 L 492 500"/>
  <path class="p0" d="M 542 500 L 593 500 L 593 416 L 542 416 L 542 500"/>
  <path class="p0" d="M 593 500 L 643 500 L 643 416 L 593 416 L 593 500"/>
  <path class="p0" d="M 643 500 L 694 500 L 694 416 L 643 416 L 643 500"/>
  <path class="p0" d="M 1198 500 L 1248 500 L 1248 416 L 1198 416 L 1198 500"/>
  <path class="p0" d="M 1248 500 L 1298 500 L 1298 416 L 1248 416 L 1248 500"/>
  <path class="p0" d="M 1298 500 L 1349 500 L 1349 416 L 1298 416 L 1298 500"/>
  <path class="p0" d="M 1349 500 L 1399 500 L 1399 416 L 1349 416 L 1349 500"/>
  <path class="p0" d="M 1399 500 L 1450 500 L 1450 416 L 1399 416 L 1399 500"/>
  <path class="p0" d="M 1450 500 L 1500 500 L 1500 416 L 1450 416 L 1450 500"/>
  <path class="p0" d="M 1500 500 L 1550 500 L 1550 416 L 1500 416 L 1500 500"/>
  <path class="p0" d="M 1550 500 L 1601 500 L 1601 416 L 1550 416 L 1550 500"/>
  <path class="p0" d="M 1601 500 L 1651 500 L 1651 416 L 1601 416 L 1601 500"/>
  <path class="p0" d="M 1651 500 L 1702 500 L 1702 416 L 1651 416 L 1651 500"/>
  <path class="p0" d="M 1702 500 L 1752 500 L 1752 416 L 1702 416 L 1702 500"/>
  <path class="p0" d="M 1752 500 L 1802 500 L 1802 416 L 1752 416 L 1752 500"/>
  <path class="p0" d="M 1802 500 L 1853 500 L 1853 416 L 1802 416 L 1802 500"/>
  <path class="p0" d="M 1853 500 L 1903 500 L 1903 416 L 1853 416 L 1853 500"/>
  <path class="p0" d="M 1903 500 L 1954 500 L 1954 416 L 1903 416 L 1903 500"/>
  <path class="p0" d="M 1954 500 L 2004 500 L 2004 416 L 1954 416 L 1954 500"/>
  <path class="p0" d="M 2004 500 L 2054 500 L 2054 416 L 2004 416 L 2004 500"/>
  <path class="p0" d="M 2054 500 L 2105 500 L 2105 416 L 2054 416 L 2054 500"/>
  <path class="p0" d="M 2105 500 L 2155 500 L 2155 416 L 2105 416 L 2105 500"/>
  <path class="p0" d="M 2155 500 L 2206 500 L 2206 416 L 2155 416 L 2155 500"/>
  <path class="p0" d="M 2206 500 L 2256 500 L 2256 416 L 2206 416 L 2206 500"/>
  <path class="p0" d="M 2256 500 L 2306 500 L 2306 416 L 2256 416 L 2256 500"/>
  <path class="p0" d="M 2306 500 L 2357 500 L 2357 416 L 2306 416 L 2306 500"/>
  <path class="p0" d="M 2357 500 L 2407 500 L 2407 416 L 2357 416 L 2357 500"/>
  <path class="p0" d="M 2407 500 L 2458 500 L 2458 416 L 2407 416 L 2407 500"/>
  <path class="p0" d="M 2458 500 L 2508 500 L 2508 416 L 2458 416 L 2458 500"/>
  <path class="p0" d="M 2508 500 L 2558 500 L 2558 416 L 2508 416 L 2508 500"/>
  <path class="p0" d="M 2558 500 L 2609 500 L 2609 416 L 2558 416 L 2558 500"/>
  <path class="p0" d="M 2609 500 L 2659 500 L 2659 416 L 2609 416 L 2609 500"/>
  <path class="p0" d="M 2659 500 L 2710 500 L 2710 416 L 2659 416 L 2659 500"/>
  <path class="p0" d="M 2710 500 L 2760 500 L 2760 416 L 2710 416 L 2710 500"/>
  <line x1="2760" y1="500" x2="2760" y2="416"/>
  <path class="p0" d="M 240 416 L 290 416 L 290 332 L 240 332 L 240 416"/>
  <line x1="240" y1="416" x2="240" y2="332"/>
  <path class="p0" d="M 290 416 L 341 416 L 341 332 L 290 332 L 290 416"/>
  <path class="p0" d="M 341 416 L 391 416 L 391 332 L 341 332 L 341 416"/>
  <path class="p0" d="M 391 416 L 442 416 L 442 332 L 391 332 L 391 416"/>
  <path class="p0" d="M 442 416 L 492 416 L 492 332 L 442 332 L 442 416"/>
  <path class="p0" d="M 492 416 L 542 416 L 542 332 L 492 332 L 492 416"/>
  <path class="p0" d="M 542 416 L 593 416 L 593 332 L 542 332 L 542 416"/>
  <path class="p0" d="M 593 416 L 643 416 L 643 332 L 593 332 L 593 416"/>
  <path class="p0" d="M 643 416 L 694 416 L 694 332 L 643 332 L 643 416"/>
  <path class="p0" d="M 694 416 L 744 416 L 744 332 L 694 332 L 694 416"/>
  <path class="p0" d="M 744 416 L 794 416 L 794 332 L 744 332 L 744 416"/>
  <path class="p0" d="M 946 416 L 996 416 L 996 332 L 946 332 L 946 416"/>
  <path class="p0" d="M 996 416 L 1046 416 L 1046 332 L 996 332 L 996 416"/>
  <path class="p0" d="M 1046 416 L 1097 416 L 1097 332 L 1046 332 L 1046 416"/>
  <path class="p0" d="M 1097 416 L 1147 416 L 1147 332 L 1097 332 L 1097 416"/>
  <path class="p0" d="M 1147 416 L 1198 416 L 1198 332 L 1147 332 L 1147 416"/>
  <path class="p0" d="M 1198 416 L 1248 416 L 1248 332 L 1198 332 L 1198 416"/>
  <path class="p0" d="M 1248 416 L 1298 416 L 1298 332 L 1248 332 L 1248 416"/>
  <path class="p0" d="M 1298 416 L 1349 416 L 1349 332 L 1298 332 L 1298 416"/>
  <path class="p0" d="M 1349 416 L 1399 416 L 1399 332 L 1349 332 L 1349 416"/>
  <path class="p0" d="M 1399 416 L 1450 416 L 1450 332 L 1399 332 L 1399 416"/>
  <path class="p0" d="M 1450 416 L 1500 416 L 1500 332 L 1450 332 L 1450 416"/>
  <path class="p0" d="M 1500 416 L 1550 416 L 1550 332 L 1500 332 L 1500 416"/>
  <path class="p0" d="M 1550 416 L 1601 416 L 1601 332 L 1550 332 L 1550 416"/>
  <path class="p0" d="M 1601 416 L 1651 416 L 1651 332 L 1601 332 L 1601 416"/>
  <path class="p0" d="M 1651 416 L 1702 416 L 1702 332 L 1651 332 L 1651 416"/>
  <path class="p0" d="M 1702 416 L 1752 416 L 1752 332 L 1702 332 L 1702 416"/>
  <path class="p0" d="M 1752 416 L 1802 416 L 1802 332 L 1752 332 L 1752 416"/>
  <path class="p0" d="M 1802 416 L 1853 416 L 1853 332 L 1802 332 L 1802 416"/>
  <path class="p0" d="M 1853 416 L 1903 416 L 1903 332 L 1853 332 L 1853 416"/>
  <path class="p0" d="M 1903 416 L 1954 416 L 1954 332 L 1903 332 L 1903 416"/>
  <path class="p0" d="M 1954 416 L 2004 416 L 2004 332 L 1954 332 L 1954 416"/>
  <path class="p0" d="M 2004 416 L 2054 416 L 2054 332 L 2004 332 L 2004 416"/>
  <path class="p0" d="M 2054 416 L 2105 416 L 2105 332 L 2054 332 L 2054 416"/>
  <path class="p0" d="M 2105 416 L 2155 416 L 2155 332 L 2105 332 L 2105 416"/>
  <path class="p0" d="M 2155 416 L 2206 416 L 2206 332 L 2155 332 L 2155 416"/>
  <path class="p0" d="M 2206 416 L 2256 416 L 2256 332 L 2206 332 L 2206 416"/>
  <path class="p0" d="M 2256 416 L 2306 416 L 2306 332 L 2256 332 L 2256 416"/>
  <path class="p0" d="M 2306 416 L 2357 416 L 2357 332 L 2306 332 L 2306 416"/>
  <path class="p0" d="M 2357 416 L 2407 416 L 2407 332 L 2357 332 L 2357 416"/>
  <path class="p0" d="M 2407 416 L 2458 416 L 2458 332 L 2407 332 L 2407 416"/>
  <path class="p0" d="M 2458 416 L 2508 416 L 2508 332 L 2458 332 L 2458 416"/>
  <path class="p0" d="M 2508 416 L 2558 416 L 2558 332 L 2508 332 L 2508 416"/>
  <path class="p0" d="M 2558 416 L 2609 416 L 2609 332 L 2558 332 L 2558 416"/>
  <path class="p0" d="M 2609 416 L 2659 416 L 2659 332 L 2609 332 L 2609 416"/>
  <path class="p0" d="M 2659 416 L 2710 416 L 2710 332 L 2659 332 L 2659 416"/>
  <path class="p0" d="M 2710 416 L 2760 416 L 2760 332 L 2710 332 L 2710 416"/>
  <line x1="2760" y1="416" x2="2760" y2="332"/>
  <path class="p0" d="M 240 332 L 290 332 L 290 248 L 240 248 L 240 332"/>
  <line x1="240" y1="332" x2="240" y2="248"/>
  <path class="p0" d="M 290 332 L 341 332 L 341 248 L 290 248 L 290 332"/>
  <path class="p0" d="M 341 332 L 391 332 L 391 248 L 341 248 L 341 332"/>
  <path class="p0" d="M 391 332 L 442 332 L 442 248 L 391 248 L 391 332"/>
  <path class="p0" d="M 442 332 L 492 332 L 492 248 L 442 248 L 442 332"/>
  <path class="p0" d="M 492 332 L 542 332 L 542 248 L 492 248 L 492 332"/>
  <path class="p0" d="M 542 332 L 593 332 L 593 248 L 542 248 L 542 332"/>
  <path class="p0" d="M 593 332 L 643 332 L 643 248 L 593 248 L 593 332"/>
  <path class="p0" d="M 643 332 L 694 332 L 694 248 L 643 248 L 643 332"/>
  <path class="p0" d="M 694 332 L 744 332 L 744 248 L 694 248 L 694 332"/>
  <path class="p0" d="M 744 332 L 794 332 L 794 248 L 744 248 L 744 332"/>
  <path class="p0" d="M 794 332 L 845 332 L 845 248 L 794 248 L 794 332"/>
  <path class="p0" d="M 845 332 L 895 332 L 895 248 L 845 248 L 845 332"/>
  <path class="p0" d="M 895 332 L 946 332 L 946 248 L 895 248 L 895 332"/>
  <path class="p0" d="M 946 332 L 996 332 L 996 248 L 946 248 L 946 332"/>
  <path class="p0" d="M 996 332 L 1046 332 L 1046 248 L 996 248 L 996 332"/>
  <path class="p0" d="M 1046 332 L 1097 332 L 1097 248 L 1046 248 L 1046 332"/>
  <path class="p0" d="M 1097 332 L 1147 332 L 1147 248 L 1097 248 L 1097 332"/>
  <path class="p0" d="M 1147 332 L 1198 332 L 1198 248 L 1147 248 L 1147 332"/>
  <path class="p0" d="M 1198 332 L 1248 332 L 1248 248 L 1198 248 L 1198 332"/>
  <path class="p0" d="M 1248 332 L 1298 332 L 1298 248 L 1248 248 L 1248 332"/>
  <path class="p0" d="M 1298 332 L 1349 332 L 1349 248 L 1298 248 L 1298 332"/>
  <path class="p0" d="M 1349 332 L 1399 332 L 1399 248 L 1349 248 L 1349 332"/>
  <path class="p0" d="M 1399 332 L 1450 332 L 1450 248 L 1399 248 L 1399 332"/>
  <path class="p0" d="M 1450 332 L 1500 332 L 1500 248 L 1450 248 L 1450 332"/>
  <path class="p0" d="M 1500 332 L 1550 332 L 1550 248 L 1500 248 L 1500 332"/>
  <path class="p0" d="M 1550 332 L 1601 332 L 1601 248 L 1550 248 L 1550 332"/>
  <path class="p0" d="M 1601 332 L 1651 332 L 1651 248 L 1601 248 L 1601 332"/>
  <path class="p0" d="M 1651 332 L 1702 332 L 1702 248 L 1651 248 L 1651 332"/>
  <path class="p0" d="M 1702 332 L 1752 332 L 1752 248 L 1702 248 L 1702 332"/>
  <path class="p0" d="M 1752 332 L 1802 332 L 1802 248 L 1752 248 L 1752 332"/>
  <path class="p0" d="M 1802 332 L 1853 332 L 1853 248 L 1802 248 L 1802 332"/>
  <path class="p0" d="M 1853 332 L 1903 332 L 1903 248 L 1853 248 L 1853 332"/>
  <path class="p0" d="M 1903 332 L 1954 332 L 1954 248 L 1903 248 L 1903 332"/>
  <path class="p0" d="M 1954 332 L 2004 332 L 2004 248 L 1954 248 L 1954 332"/>
  <path class="p0" d="M 2004 332 L 2054 332 L 2054 248 L 2004 248 L 2004 332"/>
  <path class="p0" d="M 2054 332 L 2105 332 L 2105 248 L 2054 248 L 2054 332"/>
  <path class="p0" d="M 2105 332 L 2155 332 L 2155 248 L 2105 248 L 2105 332"/>
  <path class="p0" d="M 2155 332 L 2206 332 L 2206 248 L 2155 248 L 2155 332"/>
  <path class="p0" d="M 2206 332 L 2256 332 L 2256 248 L 2206 248 L 2206 332"/>
  <path class="p0" d="M 2256 332 L 2306 332 L 2306 248 L 2256 248 L 2256 332"/>
  <path class="p0" d="M 2306 332 L 2357 332 L 2357 248 L 2306 248 L 2306 332"/>
  <path class="p0" d="M 2357 332 L 2407 332 L 2407 248 L 2357 248 L 2357 332"/>
  <path class="p0" d="M 2407 332 L 2458 332 L 2458 248 L 2407 248 L 2407 332"/>
  <path class="p0" d="M 2458 332 L 2508 332 L 2508 248 L 2458 248 L 2458 332"/>
  <path class="p0" d="M 2508 332 L 2558 332 L 2558 248 L 2508 248 L 2508 332"/>
  <path class="p0" d="M 2558 332 L 2609 332 L 2609 248 L 2558 248 L 2558 332"/>
  <path class="p0" d="M 2609 332 L 2659 332 L 2659 248 L 2609 248 L 2609 332"/>
  <path class="p0" d="M 2659 332 L 2710 332 L 2710 248 L 2659 248 L 2659 332"/>
  <path class="p0" d="M 2710 332 L 2760 332 L 2760 248 L 2710 248 L 2710 332"/>
  <line x1="2760" y1="332" x2="2760" y2="248"/>
  <path class="p0" d="M 240 248 L 290 248 L 290 164 L 240 164 L 240 248"/>
  <line x1="240" y1="248" x2="240" y2="164"/>
  <path class="p0" d="M 290 248 L 341 248 L 341 164 L 290 164 L 290 248"/>
  <path class="p0" d="M 341 248 L 391 248 L 391 164 L 341 164 L 341 248"/>
  <path class="p0" d="M 391 248 L 442 248 L 442 164 L 391 164 L 391 248"/>
  <path class="p0" d="M 442 248 L 492 248 L 492 164 L 442 164 L 442 248"/>
  <path class="p0" d="M 492 248 L 542 248 L 542 164 L 492 164 L 492 248"/>
  <path class="p0" d="M 542 248 L 593 248 L 593 164 L 542 164 L 542 248"/>
  <path class="p0" d="M 593 248 L 643 248 L 643 164 L 593 164 L 593 248"/>
  <path class="p0" d="M 643 248 L 694 248 L 694 164 L 643 164 L 643 248"/>
  <path class="p0" d="M 694 248 L 744 248 L 744 164 L 694 164 L 694 248"/>
  <path class="p0" d="M 744 248 L 794 248 L 794 164 L 744 164 L 744 248"/>
  <path class="p0" d="M 794 248 L 845 248 L 845 164 L 794 164 L 794 248"/>
  <path class="p0" d="M 845 248 L 895 248 L 895 164 L 845 164 L 845 248"/>
  <path class="p0" d="M 895 248 L 946 248 L 946 164 L 895 164 L 895 248"/>
  <path class="p0" d="M 946 248 L 996 248 L 996 164 L 946 164 L 946 248"/>
  <path class="p0" d="M 996 248 L 1046 248 L 1046 164 L 996 164 L 996 248"/>
  <path class="p0" d="M 1046 248 L 1097 248 L 1097 164 L 1046 164 L 1046 248"/>
  <path class="p0" d="M 1097 248 L 1147 248 L 1147 164 L 1097 164 L 1097 248"/>
  <path class="p0" d="M 1147 248 L 1198 248 L 1198 164 L 1147 164 L 1147 248"/>
  <path class="p0" d="M 1198 248 L 1248 248 L 1248 164 L 1198 164 L 1198 248"/>
  <path class="p0" d="M 1248 248 L 1298 248 L 1298 164 L 1248 164 L 1248 248"/>
  <path class="p0" d="M 1298 248 L 1349 248 L 1349 164 L 1298 164 L 1298 248"/>
  <path class="p0" d="M 1349 248 L 1399 248 L 1399 164 L 1349 164 L 1349 248"/>
  <path class="p0" d="M 1399 248 L 1450 248 L 1450 164 L 1399 164 L 1399 248"/>
  <path class="p0" d="M 1450 248 L 1500 248 L 1500 164 L 1450 164 L 1450 248"/>
  <path class="p0" d="M 1500 248 L 1550 248 L 1550 164 L 1500 164 L 1500 248"/>
  <path class="p0" d="M 1550 248 L 1601 248 L 1601 164 L 1550 164 L 1550 248"/>
  <path class="p0" d="M 1601 248 L 1651 248 L 1651 164 L 1601 164 L 1601 248"/>
  <path class="p0" d="M 1651 248 L 1702 248 L 1702 164 L 1651 164 L 1651 248"/>
  <path class="p0" d="M 1702 248 L 1752 248 L 1752 164 L 1702 164 L 1702 248"/>
  <path class="p0" d="M 1752 248 L 1802 248 L 1802 164 L 1752 164 L 1752 248"/>
  <path class="p0" d="M 1802 248 L 1853 248 L 1853 164 L 1802 164 L 1802 248"/>
  <path class="p0" d="M 1853 248 L 1903 248 L 1903 164 L 1853 164 L 1853 248"/>
  <path class="p0" d="M 1903 248 L 1954 248 L 1954 164 L 1903 164 L 1903 248"/>
  <path class="p0" d="M 1954 248 L 2004 248 L 2004 164 L 1954 164 L 1954 248"/>
  <path class="p0" d="M 2004 248 L 2054 248 L 2054 164 L 2004 164 L 2004 248"/>
  <path class="p0" d="M 2054 248 L 2105 248 L 2105 164 L 2054 164 L 2054 248"/>
  <path class="p0" d="M 2105 248 L 2155 248 L 2155 164 L 2105 164 L 2105 248"/>
  <path class="p0" d="M 2155 248 L 2206 248 L 2206 164 L 2155 164 L 2155 248"/>
  <path class="p0" d="M 2206 248 L 2256 248 L 2256 164 L 2206 164 L 2206 248"/>
  <path class="p0" d="M 2256 248 L 2306 248 L 2306 164 L 2256 164 L 2256 248"/>
  <path class="p0" d="M 2306 248 L 2357 248 L 2357 164 L 2306 164 L 2306 248"/>
  <path class="p0" d="M 2357 248 L 2407 248 L 2407 164 L 2357 164 L 2357 248"/>
  <path class="p0" d="M 2407 248 L 2458 248 L 2458 164 L 2407 164 L 2407 248"/>
  <path class="p0" d="M 2458 248 L 2508 248 L 2508 164 L 2458 164 L 2458 248"/>
  <path class="p0" d="M 2508 248 L 2558 248 L 2558 164 L 2508 164 L 2508 248"/>
  <path class="p0" d="M 2558 248 L 2609 248 L 2609 164 L 2558 164 L 2558 248"/>
  <path class="p0" d="M 2609 248 L 2659 248 L 2659 164 L 2609 164 L 2609 248"/>
  <path class="p0" d="M 2659 248 L 2710 248 L 2710 164 L 2659 164 L 2659 248"/>
  <path class="p0" d="M 2710 248 L 2760 248 L 2760 164 L 2710 164 L 2710 248"/>
  <line x1="2760" y1="248" x2="2760" y2="164"/>
  <path class="p0" d="M 240 164 L 290 164 L 290 80 L 240 80 L 240 164"/>
  <line x1="240" y1="164" x2="240" y2="80"/>
  <line x1="240" y1="80" x2="290" y2="80"/>
  <path class="p0" d="M 290 164 L 341 164 L 341 80 L 290 80 L 290 164"/>
  <line x1="290" y1="80" x2="341" y2="80"/>
  <path class="p0" d="M 341 164 L 391 164 L 391 80 L 341 80 L 341 164"/>
  <line x1="341" y1="80" x2="391" y2="80"/>
  <path class="p0" d="M 391 164 L 442 164 L 442 80 L 391 80 L 391 164"/>
  <line x1="391" y1="80" x2="442" y2="80"/>
  <path class="p0" d="M 442 164 L 492 164 L 492 80 L 442 80 L 442 164"/>
  <line x1="442" y1="80" x2="492" y2="80"/>
  <path class="p0" d="M 492 164 L 542 164 L 542 80 L 492 80 L 492 164"/>
  <line x1="492" y1="80" x2="542" y2="80"/>
  <path class="p0" d="M 542 164 L 593 164 L 593 80 L 542 80 L 542 164"/>
  <line x1="542" y1="80" x2="593" y2="80"/>
  <path class="p0" d="M 593 164 L 643 164 L 643 80 L 593 80 L 593 164"/>
  <line x1="593" y1="80" x2="643" y2="80"/>
  <path class="p0" d="M 643 164 L 694 164 L 694 80 L 643 80 L 643 164"/>
  <line x1="643" y1="80" x2="694" y2="80"/>
  <path class="p0" d="M 694 164 L 744 164 L 744 80 L 694 80 L 694 164"/>
  <line x1="694" y1="80" x2="744" y2="80"/>
  <path class="p0" d="M 744 164 L 794 164 L 794 80 L 744 80 L 744 164"/>
  <line x1="744" y1="80" x2="794" y2="80"/>
  <path class="p0" d="M 794 164 L 845 164 L 845 80 L 794 80 L 794 164"/>
  <line x1="794" y1="80" x2="845" y2="80"/>
  <path class="p0" d="M 845 164 L 895 164 L 895 80 L 845 80 L 845 164"/>
  <line x1="845" y1="80" x2="895" y2="80"/>
  <path class="p0" d="M 895 164 L 946 164 L 946 80 L 895 80 L 895 164"/>
  <line x1="895" y1="80" x2="946" y2="80"/>
  <path class="p0" d="M 946 164 L 996 164 L 996 80 L 946 80 L 946 164"/>
  <line x1="946" y1="80" x2="996" y2="80"/>
  <path class="p0" d="M 996 164 L 1046 164 L 1046 80 L 996 80 L 996 164"/>
  <line x1="996" y1="80" x2="1046" y2="80"/>
  <path class="p0" d="M 1046 164 L 1097 164 L 1097 80 L 1046 80 L 1046 164"/>
  <line x1="1046" y1="80" x2="1097" y2="80"/>
  <path class="p0" d="M 1097 164 L 1147 164 L 1147 80 L 1097 80 L 1097 164"/>
  <line x1="1097" y1="80" x2="1147" y2="80"/>
  <path class="p0" d="M 1147 164 L 1198 164 L 1198 80 L 1147 80 L 1147 164"/>
  <line x1="1147" y1="80" x2="1198" y2="80"/>
  <path class="p0" d="M 1198 164 L 1248 164 L 1248 80 L 1198 80 L 1198 164"/>
  <line x1="1198" y1="80" x2="1248" y2="80"/>
  <path class="p0" d="M 1248 164 L 1298 164 L 1298 80 L 1248 80 L 1248 164"/>
  <line x1="1248" y1="80" x2="1298" y2="80"/>
  <path class="p0" d="M 1298 164 L 1349 164 L 1349 80 L 1298 80 L 1298 164"/>
  <line x1="1298" y1="80" x2="1349" y2="80"/>
  <path class="p0" d="M 1349 164 L 1399 164 L 1399 80 L 1349 80 L 1349 164"/>
  <line x1="1349" y1="80" x2="1399" y2="80"/>
  <path class="p0" d="M 1399 164 L 1450 164 L 1450 80 L 1399 80 L 1399 164"/>
  <line x1="1399" y1="80" x2="1450" y2="80"/>
  <path class="p0" d="M 1450 164 L 1500 164 L 1500 80 L 1450 80 L 1450 164"/>
  <line x1="1450" y1="80" x2="1500" y2="80"/>
  <path class="p0" d="M 1500 164 L 1550 164 L 1550 80 L 1500 80 L 1500 164"/>
  <line x1="1500" y1="80" x2="1550" y2="80"/>
  <path class="p0" d="M 1550 164 L 1601 164 L 1601 80 L 1550 80 L 1550 164"/>
  <line x1="1550" y1="80" x2="1601" y2="80"/>
  <path class="p0" d="M 1601 164 L 1651 164 L 1651 80 L 1601 80 L 1601 164"/>
  <line x1="1601" y1="80" x2="1651" y2="80"/>
  <path class="p0" d="M 1651 164 L 1702 164 L 1702 80 L 1651 80 L 1651 164"/>
  <line x1="1651" y1="80" x2="1702" y2="80"/>
  <path class="p0" d="M 1702 164 L 1752 164 L 1752 80 L 1702 80 L 1702 164"/>
  <line x1="1702" y1="80" x2="1752" y2="80"/>
  <path class="p0" d="M 1752 164 L 1802 164 L 1802 80 L 1752 80 L 1752 164"/>
  <line x1="1752" y1="80" x2="1802" y2="80"/>
  <path class="p0" d="M 1802 164 L 1853 164 L 1853 80 L 1802 80 L 1802 164"/>
  <line x1="1802" y1="80" x2="1853" y2="80"/>
  <path class="p0" d="M 1853 164 L 1903 164 L 1903 80 L 1853 80 L 1853 164"/>
  <line x1="1853" y1="80" x2="1903" y2="80"/>
  <path class="p0" d="M 1903 164 L 1954 164 L 1954 80 L 1903 80 L 1903 164"/>
  <line x1="1903" y1="80" x2="1954" y2="80"/>
  <path class="p0" d="M 1954 164 L 2004 164 L 2004 80 L 1954 80 L 1954 164"/>
  <line x1="1954" y1="80" x2="2004" y2="80"/>
  <path class="p0" d="M 2004 164 L 2054 164 L 2054 80 L 2004 80 L 2004 164"/>
  <line x1="2004" y1="80" x2="2054" y2="80"/>
  <path class="p0" d="M 2054 164 L 2105 164 L 2105 80 L 2054 80 L 2054 164"/>
  <line x1="2054" y1="80" x2="2105" y2="80"/>
  <path class="p0" d="M 2105 164 L 2155 164 L 2155 80 L 2105 80 L 2105 164"/>
  <line x1="2105" y1="80" x2="2155" y2="80"/>
  <path class="p0" d="M 2155 164 L 2206 164 L 2206 80 L 2155 80 L 2155 164"/>
  <line x1="2155" y1="80" x2="2206" y2="80"/>
  <path class="p0" d="M 2206 164 L 2256 164 L 2256 80 L 2206 80 L 2206 164"/>
  <line x1="2206" y1="80" x2="2256" y2="80"/>
  <path class="p0" d="M 2256 164 L 2306 164 L 2306 80 L 2256 80 L 2256 164"/>
  <line x1="2256" y1="80" x2="2306" y2="80"/>
  <path class="p0" d="M 2306 164 L 2357 164 L 2357 80 L 2306 80 L 2306 164"/>
  <line x1="2306" y1="80" x2="2357" y2="80"/>
  <path class="p0" d="M 2357 164 L 2407 164 L 2407 80 L 2357 80 L 2357 164"/>
  <line x1="2357" y1="80" x2="2407" y2="80"/>
  <path class="p0" d="M 2407 164 L 2458 164 L 2458 80 L 2407 80 L 2407 164"/>
  <line x1="2407" y1="80" x2="2458" y2="80"/>
  <path class="p0" d="M 2458 164 L 2508 164 L 2508 80 L 2458 80 L 2458 164"/>
  <line x1="2458" y1="80" x2="2508" y2="80"/>
  <path class="p0" d="M 2508 164 L 2558 164 L 2558 80 L 2508 80 L 2508 164"/>
  <line x1="2508" y1="80" x2="2558" y2="80"/>
  <path class="p0" d="M 2558 164 L 2609 164 L 2609 80 L 2558 80 L 2558 164"/>
  <line x1="2558" y1="80" x2="2609" y2="80"/>
  <path class="p0" d="M 2609 164 L 2659 164 L 2659 80 L 2609 80 L 2609 164"/>
  <line x1="2609" y1="80" x2="2659" y2="80"/>
  <path class="p0" d="M 2659 164 L 2710 164 L 2710 80 L 2659 80 L 2659 164"/>
  <line x1="2659" y1="80" x2="2710" y2="80"/>
  <path class="p0" d="M 2710 164 L 2760 164 L 2760 80 L 2710 80 L 2710 164"/>
  <line x1="2760" y1="164" x2="2760" y2="80"/>
  <line x1="2710" y1="80" x2="2760" y2="80"/>
  <path class="p1" d="M 643 920 L 668 920 L 668 878 L 643 878 L 643 920"/>
  <line x1="643" y1="920" x2="668" y2="920"/>
  <path class="p1" d="M 668 920 L 694 920 L 694 878 L 668 878 L 668 920"/>
  <line x1="668" y1="920" x2="694" y2="920"/>
  <path class="p1" d="M 643 878 L 668 878 L 668 836 L 643 836 L 643 878"/>
  <path class="p1" d="M 668 878 L 694 878 L 694 836 L 668 836 L 668 878"/>
  <path class="p1" d="M 870 752 L 895 752 L 895 710 L 870 710 L 870 752"/>
  <line x1="870" y1="752" x2="895" y2="752"/>
  <path class="p1" d="M 618 920 L 643 920 L 643 878 L 618 878 L 618 920"/>
  <line x1="618" y1="920" x2="643" y2="920"/>
  <path class="p1" d="M 593 878 L 618 878 L 618 836 L 593 836 L 593 878"/>
  <path class="p1" d="M 618 878 L 643 878 L 643 836 L 618 836 L 618 878"/>
  <path class="p1" d="M 618 836 L 643 836 L 643 794 L 618 794 L 618 836"/>
  <path class="p1" d="M 618 794 L 643 794 L 643 752 L 618 752 L 618 794"/>
  <path class="p1" d="M 593 668 L 618 668 L 618 626 L 593 626 L 593 668"/>
  <path class="p1" d="M 593 626 L 618 626 L 618 584 L 593 584 L 593 626"/>
  <path class="p1" d="M 618 626 L 643 626 L 643 584 L 618 584 L 618 626"/>
  <path class="p1" d="M 895 752 L 920 752 L 920 710 L 895 710 L 895 752"/>
  <line x1="895" y1="752" x2="920" y2="752"/>
  <path class="p1" d="M 920 752 L 946 752 L 946 710 L 920 710 L 920 752"/>
  <line x1="920" y1="752" x2="946" y2="752"/>
  <path class="p1" d="M 920 710 L 946 710 L 946 668 L 920 668 L 920 710"/>
  <path class="p1" d="M 946 752 L 971 752 L 971 710 L 946 710 L 946 752"/>
  <line x1="946" y1="752" x2="971" y2="752"/>
  <path class="p1" d="M 971 752 L 996 752 L 996 710 L 971 710 L 971 752"/>
  <line x1="971" y1="752" x2="996" y2="752"/>
  <path class="p1" d="M 946 710 L 971 710 L 971 668 L 946 668 L 946 710"/>
  <path class="p1" d="M 971 710 L 996 710 L 996 668 L 971 668 L 971 710"/>
  <path class="p1" d="M 618 752 L 643 752 L 643 710 L 618 710 L 618 752"/>
  <path class="p1" d="M 593 710 L 618 710 L 618 668 L 593 668 L 593 710"/>
  <path class="p1" d="M 542 836 L 568 836 L 568 794 L 542 794 L 542 836"/>
  <path class="p1" d="M 542 794 L 568 794 L 568 752 L 542 752 L 542 794"/>
  <path class="p1" d="M 568 794 L 593 794 L 593 752 L 568 752 L 568 794"/>
  <path class="p1" d="M 694 836 L 719 836 L 719 794 L 694 794 L 694 836"/>
  <path class="p1" d="M 719 836 L 744 836 L 744 794 L 719 794 L 719 836"/>
  <line x1="744" y1="836" x2="744" y2="794"/>
  <path class="p1" d="M 971 668 L 996 668 L 996 626 L 971 626 L 971 668"/>
  <path class="p1" d="M 542 920 L 568 920 L 568 878 L 542 878 L 542 920"/>
  <line x1="542" y1="920" x2="568" y2="920"/>
  <path class="p1" d="M 542 878 L 568 878 L 568 836 L 542 836 L 542 878"/>
  <path class="p1" d="M 996 668 L 1021 668 L 1021 626 L 996 626 L 996 668"/>
  <path class="p1" d="M 1021 668 L 1046 668 L 1046 626 L 1021 626 L 1021 668"/>
  <path class="p1" d="M 1046 668 L 1072 668 L 1072 626 L 1046 626 L 1046 668"/>
  <path class="p1" d="M 1072 668 L 1097 668 L 1097 626 L 1072 626 L 1072 668"/>
  <path class="p1" d="M 1046 626 L 1072 626 L 1072 584 L 1046 584 L 1046 626"/>
  <path class="p1" d="M 1072 626 L 1097 626 L 1097 584 L 1072 584 L 1072 626"/>
  <path class="p1" d="M 1198 584 L 1223 584 L 1223 542 L 1198 542 L 1198 584"/>
  <path class="p1" d="M 1223 584 L 1248 584 L 1248 542 L 1223 542 L 1223 584"/>
  <path class="p1" d="M 1198 542 L 1223 542 L 1223 500 L 1198 500 L 1198 542"/>
  <path class="p1" d="M 1223 542 L 1248 542 L 1248 500 L 1223 500 L 1223 542"/>
  <path class="p1" d="M 643 584 L 668 584 L 668 542 L 643 542 L 643 584"/>
  <path class="p1" d="M 643 542 L 668 542 L 668 500 L 643 500 L 643 542"/>
  <path class="p1" d="M 668 542 L 694 542 L 694 500 L 668 500 L 668 542"/>
  <path class="p1" d="M 744 458 L 769 458 L 769 416 L 744 416 L 744 458"/>
  <path class="p1" d="M 769 458 L 794 458 L 794 416 L 769 416 L 769 458"/>
  <path class="p1" d="M 870 500 L 895 500 L 895 458 L 870 458 L 870 500"/>
  <path class="p1" d="M 1097 584 L 1122 584 L 1122 542 L 1097 542 L 1097 584"/>
  <path class="p1" d="M 1122 584 L 1147 584 L 1147 542 L 1122 542 L 1122 584"/>
  <path class="p1" d="M 895 500 L 920 500 L 920 458 L 895 458 L 895 500"/>
  <path class="p1" d="M 920 500 L 946 500 L 946 458 L 920 458 L 920 500"/>
  <path class="p1" d="M 895 458 L 920 458 L 920 416 L 895 416 L 895 458"/>
  <path class="p1" d="M 920 458 L 946 458 L 946 416 L 920 416 L 920 458"/>
  <path class="p1" d="M 845 416 L 870 416 L 870 374 L 845 374 L 845 416"/>
  <path class="p1" d="M 845 374 L 870 374 L 870 332 L 845 332 L 845 374"/>
  <path class="p1" d="M 870 374 L 895 374 L 895 332 L 870 332 L 870 374"/>
  <path class="p1" d="M 542 752 L 568 752 L 568 710 L 542 710 L 542 752"/>
  <path class="p1" d="M 568 752 L 593 752 L 593 710 L 568 710 L 568 752"/>
  <path class="p1" d="M 542 710 L 568 710 L 568 668 L 542 668 L 542 710"/>
  <path class="p1" d="M 568 710 L 593 710 L 593 668 L 568 668 L 568 710"/>
  <path class="p1" d="M 1147 584 L 1172 584 L 1172 542 L 1147 542 L 1147 584"/>
  <path class="p1" d="M 1172 584 L 1198 584 L 1198 542 L 1172 542 L 1172 584"/>
  <path class="p1" d="M 694 500 L 719 500 L 719 458 L 694 458 L 694 500"/>
  <path class="p1" d="M 719 500 L 744 500 L 744 458 L 719 458 L 719 500"/>
  <path class="p1" d="M 694 458 L 719 458 L 719 416 L 694 416 L 694 458"/>
  <path class="p1" d="M 719 458 L 744 458 L 744 416 L 719 416 L 719 458"/>
  <path class="p1" d="M 946 500 L 971 500 L 971 458 L 946 458 L 946 500"/>
  <path class="p1" d="M 971 500 L 996 500 L 996 458 L 971 458 L 971 500"/>
  <path class="p1" d="M 946 458 L 971 458 L 971 416 L 946 416 L 946 458"/>
  <path class="p1" d="M 971 458 L 996 458 L 996 416 L 971 416 L 971 458"/>
  <path class="p1" d="M 996 500 L 1021 500 L 1021 458 L 996 458 L 996 500"/>
  <path class="p1" d="M 1021 500 L 1046 500 L 1046 458 L 1021 458 L 1021 500"/>
  <path class="p1" d="M 996 458 L 1021 458 L 1021 416 L 996 416 L 996 458"/>
  <path class="p1" d="M 1021 458 L 1046 458 L 1046 416 L 1021 416 L 1021 458"/>
  <path class="p1" d="M 1046 500 L 1072 500 L 1072 458 L 1046 458 L 1046 500"/>
  <path class="p1" d="M 1072 500 L 1097 500 L 1097 458 L 1072 458 L 1072 500"/>
  <path class="p1" d="M 1046 458 L 1072 458 L 1072 416 L 1046 416 L 1046 458"/>
  <path class="p1" d="M 1072 458 L 1097 458 L 1097 416 L 1072 416 L 1072 458"/>
  <path class="p1" d="M 1097 500 L 1122 500 L 1122 458 L 1097 458 L 1097 500"/>
  <path class="p1" d="M 1122 500 L 1147 500 L 1147 458 L 1122 458 L 1122 500"/>
  <path class="p1" d="M 1097 458 L 1122 458 L 1122 416 L 1097 416 L 1097 458"/>
  <path class="p1" d="M 1122 458 L 1147 458 L 1147 416 L 1122 416 L 1122 458"/>
  <path class="p1" d="M 794 416 L 820 416 L 820 374 L 794 374 L 794 416"/>
  <path class="p1" d="M 820 416 L 845 416 L 845 374 L 820 374 L 820 416"/>
  <path class="p1" d="M 794 374 L 820 374 L 820 332 L 794 332 L 794 374"/>
  <path class="p1" d="M 820 374 L 845 374 L 845 332 L 820 332 L 820 374"/>
  <path class="p1" d="M 1147 500 L 1172 500 L 1172 458 L 1147 458 L 1147 500"/>
  <path class="p1" d="M 1172 500 L 1198 500 L 1198 458 L 1172 458 L 1172 500"/>
  <path class="p1" d="M 1147 458 L 1172 458 L 1172 416 L 1147 416 L 1147 458"/>
  <path class="p1" d="M 1172 458 L 1198 458 L 1198 416 L 1172 416 L 1172 458"/>
  <path class="p1" d="M 895 416 L 920 416 L 920 374 L 895 374 L 895 416"/>
  <path class="p1" d="M 920 416 L 946 416 L 946 374 L 920 374 L 920 416"/>
  <path class="p1" d="M 895 374 L 920 374 L 920 332 L 895 332 L 895 374"/>
  <path class="p1" d="M 920 374 L 946 374 L 946 332 L 920 332 L 920 374"/>
  <path class="p2" d="M 719 752 L 731 752 L 731 731 L 719 731 L 719 752"/>
  <path class="p2" d="M 731 752 L 744 752 L 744 731 L 731 731 L 731 752"/>
  <path class="p2" d="M 719 731 L 731 731 L 731 710 L 719 710 L 719 731"/>
  <path class="p2" d="M 731 731 L 744 731 L 744 710 L 731 710 L 731 731"/>
  <path class="p2" d="M 618 668 L 631 668 L 631 647 L 618 647 L 618 668"/>
  <path class="p2" d="M 631 668 L 643 668 L 643 647 L 631 647 L 631 668"/>
  <path class="p2" d="M 618 647 L 631 647 L 631 626 L 618 626 L 618 647"/>
  <path class="p2" d="M 631 647 L 643 647 L 643 626 L 631 626 L 631 647"/>
  <path class="p2" d="M 643 752 L 656 752 L 656 731 L 643 731 L 643 752"/>
  <path class="p2" d="M 656 752 L 668 752 L 668 731 L 656 731 L 656 752"/>
  <path class="p2" d="M 643 731 L 656 731 L 656 710 L 643 710 L 643 731"/>
  <path class="p2" d="M 656 731 L 668 731 L 668 710 L 656 710 L 656 731"/>
  <path class="p2" d="M 593 794 L 605 794 L 605 773 L 593 773 L 593 794"/>
  <path class="p2" d="M 605 794 L 618 794 L 618 773 L 605 773 L 605 794"/>
  <path class="p2" d="M 593 773 L 605 773 L 605 752 L 593 752 L 593 773"/>
  <path class="p2" d="M 605 773 L 618 773 L 618 752 L 605 752 L 605 773"/>
  <path class="p2" d="M 694 794 L 706 794 L 706 773 L 694 773 L 694 794"/>
  <path class="p2" d="M 706 794 L 719 794 L 719 773 L 706 773 L 706 794"/>
  <path class="p2" d="M 694 773 L 706 773 L 706 752 L 694 752 L 694 773"/>
  <path class="p2" d="M 706 773 L 719 773 L 719 752 L 706 752 L 706 773"/>
  <path class="p2" d="M 694 752 L 706 752 L 706 731 L 694 731 L 694 752"/>
  <path class="p2" d="M 706 752 L 719 752 L 719 731 L 706 731 L 706 752"/>
  <path class="p2" d="M 694 731 L 706 731 L 706 710 L 694 710 L 694 731"/>
  <path class="p2" d="M 706 731 L 719 731 L 719 710 L 706 710 L 706 731"/>
  <path class="p2" d="M 719 710 L 731 710 L 731 689 L 719 689 L 719 710"/>
  <path class="p2" d="M 731 710 L 744 710 L 744 689 L 731 689 L 731 710"/>
  <path class="p2" d="M 719 689 L 731 689 L 731 668 L 719 668 L 719 689"/>
  <path class="p2" d="M 731 689 L 744 689 L 744 668 L 731 668 L 731 689"/>
  <path class="p2" d="M 744 752 L 757 752 L 757 731 L 744 731 L 744 752"/>
  <line x1="744" y1="752" x2="757" y2="752"/>
  <path class="p2" d="M 757 752 L 769 752 L 769 731 L 757 731 L 757 752"/>
  <line x1="757" y1="752" x2="769" y2="752"/>
  <path class="p2" d="M 744 731 L 757 731 L 757 710 L 744 710 L 744 731"/>
  <path class="p2" d="M 757 731 L 769 731 L 769 710 L 757 710 L 757 731"/>
  <path class="p2" d="M 769 752 L 782 752 L 782 731 L 769 731 L 769 752"/>
  <line x1="769" y1="752" x2="782" y2="752"/>
  <path class="p2" d="M 782 752 L 794 752 L 794 731 L 782 731 L 782 752"/>
  <line x1="782" y1="752" x2="794" y2="752"/>
  <path class="p2" d="M 769 731 L 782 731 L 782 710 L 769 710 L 769 731"/>
  <path class="p2" d="M 782 731 L 794 731 L 794 710 L 782 710 L 782 731"/>
  <path class="p2" d="M 694 668 L 706 668 L 706 647 L 694 647 L 694 668"/>
  <path class="p2" d="M 706 668 L 719 668 L 719 647 L 706 647 L 706 668"/>
  <path class="p2" d="M 694 647 L 706 647 L 706 626 L 694 626 L 694 647"/>
  <path class="p2" d="M 706 647 L 719 647 L 719 626 L 706 626 L 706 647"/>
  <path class="p2" d="M 668 836 L 681 836 L 681 815 L 668 815 L 668 836"/>
  <path class="p2" d="M 681 836 L 694 836 L 694 815 L 681 815 L 681 836"/>
  <path class="p2" d="M 668 815 L 681 815 L 681 794 L 668 794 L 668 815"/>
  <path class="p2" d="M 681 815 L 694 815 L 694 794 L 681 794 L 681 815"/>
  <path class="p2" d="M 668 794 L 681 794 L 681 773 L 668 773 L 668 794"/>
  <path class="p2" d="M 681 794 L 694 794 L 694 773 L 681 773 L 681 794"/>
  <path class="p2" d="M 668 773 L 681 773 L 681 752 L 668 752 L 668 773"/>
  <path class="p2" d="M 681 773 L 694 773 L 694 752 L 681 752 L 681 773"/>
  <path class="p2" d="M 794 752 L 807 752 L 807 731 L 794 731 L 794 752"/>
  <line x1="794" y1="752" x2="807" y2="752"/>
  <path class="p2" d="M 807 752 L 820 752 L 820 731 L 807 731 L 807 752"/>
  <line x1="807" y1="752" x2="820" y2="752"/>
  <path class="p2" d="M 794 731 L 807 731 L 807 710 L 794 710 L 794 731"/>
  <path class="p2" d="M 807 731 L 820 731 L 820 710 L 807 710 L 807 731"/>
  <path class="p2" d="M 820 752 L 832 752 L 832 731 L 820 731 L 820 752"/>
  <line x1="820" y1="752" x2="832" y2="752"/>
  <path class="p2" d="M 832 752 L 845 752 L 845 731 L 832 731 L 832 752"/>
  <line x1="832" y1="752" x2="845" y2="752"/>
  <path class="p2" d="M 820 731 L 832 731 L 832 710 L 820 710 L 820 731"/>
  <path class="p2" d="M 832 731 L 845 731 L 845 710 L 832 710 L 832 731"/>
  <path class="p2" d="M 744 710 L 757 710 L 757 689 L 744 689 L 744 710"/>
  <path class="p2" d="M 757 710 L 769 710 L 769 689 L 757 689 L 757 710"/>
  <path class="p2" d="M 744 689 L 757 689 L 757 668 L 744 668 L 744 689"/>
  <path class="p2" d="M 757 689 L 769 689 L 769 668 L 757 668 L 757 689"/>
  <path class="p2" d="M 769 710 L 782 710 L 782 689 L 769 689 L 769 710"/>
  <path class="p2" d="M 782 710 L 794 710 L 794 689 L 782 689 L 782 710"/>
  <path class="p2" d="M 769 689 L 782 689 L 782 668 L 769 668 L 769 689"/>
  <path class="p2" d="M 782 689 L 794 689 L 794 668 L 782 668 L 782 689"/>
  <path class="p2" d="M 643 836 L 656 836 L 656 815 L 643 815 L 643 836"/>
  <path class="p2" d="M 656 836 L 668 836 L 668 815 L 656 815 L 656 836"/>
  <path class="p2" d="M 643 815 L 656 815 L 656 794 L 643 794 L 643 815"/>
  <path class="p2" d="M 656 815 L 668 815 L 668 794 L 656 794 L 656 815"/>
  <path class="p2" d="M 668 752 L 681 752 L 681 731 L 668 731 L 668 752"/>
  <path class="p2" d="M 681 752 L 694 752 L 694 731 L 681 731 L 681 752"/>
  <path class="p2" d="M 668 731 L 681 731 L 681 710 L 668 710 L 668 731"/>
  <path class="p2" d="M 681 731 L 694 731 L 694 710 L 681 710 L 681 731"/>
  <path class="p2" d="M 820 710 L 832 710 L 832 689 L 820 689 L 820 710"/>
  <path class="p2" d="M 832 710 L 845 710 L 845 689 L 832 689 L 832 710"/>
  <path class="p2" d="M 820 689 L 832 689 L 832 668 L 820 668 L 820 689"/>
  <path class="p2" d="M 832 689 L 845 689 L 845 668 L 832 668 L 832 689"/>
  <path class="p2" d="M 719 668 L 731 668 L 731 647 L 719 647 L 719 668"/>
  <path class="p2" d="M 731 668 L 744 668 L 744 647 L 731 647 L 731 668"/>
  <path class="p2" d="M 719 647 L 731 647 L 731 626 L 719 626 L 719 647"/>
  <path class="p2" d="M 731 647 L 744 647 L 744 626 L 731 626 L 731 647"/>
  <path class="p2" d="M 845 752 L 857 752 L 857 731 L 845 731 L 845 752"/>
  <line x1="845" y1="752" x2="857" y2="752"/>
  <path class="p2" d="M 857 752 L 870 752 L 870 731 L 857 731 L 857 752"/>
  <line x1="857" y1="752" x2="870" y2="752"/>
  <path class="p2" d="M 845 731 L 857 731 L 857 710 L 845 710 L 845 731"/>
  <path class="p2" d="M 857 731 L 870 731 L 870 710 L 857 710 L 857 731"/>
  <path class="p2" d="M 719 626 L 731 626 L 731 605 L 719 605 L 719 626"/>
  <path class="p2" d="M 731 626 L 744 626 L 744 605 L 731 605 L 731 626"/>
  <path class="p2" d="M 719 605 L 731 605 L 731 584 L 719 584 L 719 605"/>
  <path class="p2" d="M 731 605 L 744 605 L 744 584 L 731 584 L 731 605"/>
  <path class="p2" d="M 845 710 L 857 710 L 857 689 L 845 689 L 845 710"/>
  <path class="p2" d="M 857 710 L 870 710 L 870 689 L 857 689 L 857 710"/>
  <path class="p2" d="M 845 689 L 857 689 L 857 668 L 845 668 L 845 689"/>
  <path class="p2" d="M 857 689 L 870 689 L 870 668 L 857 668 L 857 689"/>
  <path class="p2" d="M 870 710 L 883 710 L 883 689 L 870 689 L 870 710"/>
  <path class="p2" d="M 883 710 L 895 710 L 895 689 L 883 689 L 883 710"/>
  <path class="p2" d="M 870 689 L 883 689 L 883 668 L 870 668 L 870 689"/>
  <path class="p2" d="M 883 689 L 895 689 L 895 668 L 883 668 L 883 689"/>
  <path class="p2" d="M 744 668 L 757 668 L 757 647 L 744 647 L 744 668"/>
  <path class="p2" d="M 757 668 L 769 668 L 769 647 L 757 647 L 757 668"/>
  <path class="p2" d="M 744 647 L 757 647 L 757 626 L 744 626 L 744 647"/>
  <path class="p2" d="M 757 647 L 769 647 L 769 626 L 757 626 L 757 647"/>
  <path class="p2" d="M 769 626 L 782 626 L 782 605 L 769 605 L 769 626"/>
  <path class="p2" d="M 782 626 L 794 626 L 794 605 L 782 605 L 782 626"/>
  <path class="p2" d="M 769 605 L 782 605 L 782 584 L 769 584 L 769 605"/>
  <path class="p2" d="M 782 605 L 794 605 L 794 584 L 782 584 L 782 605"/>
  <path class="p2" d="M 694 710 L 706 710 L 706 689 L 694 689 L 694 710"/>
  <path class="p2" d="M 706 710 L 719 710 L 719 689 L 706 689 L 706 710"/>
  <path class="p2" d="M 694 689 L 706 689 L 706 668 L 694 668 L 694 689"/>
  <path class="p2" d="M 706 689 L 719 689 L 719 668 L 706 668 L 706 689"/>
  <path class="p2" d="M 643 794 L 656 794 L 656 773 L 643 773 L 643 794"/>
  <path class="p2" d="M 656 794 L 668 794 L 668 773 L 656 773 L 656 794"/>
  <path class="p2" d="M 643 773 L 656 773 L 656 752 L 643 752 L 643 773"/>
  <path class="p2" d="M 656 773 L 668 773 L 668 752 L 656 752 L 656 773"/>
  <path class="p2" d="M 668 710 L 681 710 L 681 689 L 668 689 L 668 710"/>
  <path class="p2" d="M 681 710 L 694 710 L 694 689 L 681 689 L 681 710"/>
  <path class="p2" d="M 668 689 L 681 689 L 681 668 L 668 668 L 668 689"/>
  <path class="p2" d="M 681 689 L 694 689 L 694 668 L 681 668 L 681 689"/>
  <path class="p2" d="M 794 710 L 807 710 L 807 689 L 794 689 L 794 710"/>
  <path class="p2" d="M 807 710 L 820 710 L 820 689 L 807 689 L 807 710"/>
  <path class="p2" d="M 794 689 L 807 689 L 807 668 L 794 668 L 794 689"/>
  <path class="p2" d="M 807 689 L 820 689 L 820 668 L 807 668 L 807 689"/>
  <path class="p2" d="M 769 668 L 782 668 L 782 647 L 769 647 L 769 668"/>
  <path class="p2" d="M 782 668 L 794 668 L 794 647 L 782 647 L 782 668"/>
  <path class="p2" d="M 769 647 L 782 647 L 782 626 L 769 626 L 769 647"/>
  <path class="p2" d="M 782 647 L 794 647 L 794 626 L 782 626 L 782 647"/>
  <path class="p2" d="M 744 626 L 757 626 L 757 605 L 744 605 L 744 626"/>
  <path class="p2" d="M 757 626 L 769 626 L 769 605 L 757 605 L 757 626"/>
  <path class="p2" d="M 744 605 L 757 605 L 757 584 L 744 584 L 744 605"/>
  <path class="p2" d="M 757 605 L 769 605 L 769 584 L 757 584 L 757 605"/>
  <path class="p2" d="M 694 584 L 706 584 L 706 563 L 694 563 L 694 584"/>
  <path class="p2" d="M 706 584 L 719 584 L 719 563 L 706 563 L 706 584"/>
  <path class="p2" d="M 694 563 L 706 563 L 706 542 L 694 542 L 694 563"/>
  <path class="p2" d="M 706 563 L 719 563 L 719 542 L 706 542 L 706 563"/>
  <path class="p2" d="M 895 710 L 908 710 L 908 689 L 895 689 L 895 710"/>
  <path class="p2" d="M 908 710 L 920 710 L 920 689 L 908 689 L 908 710"/>
  <path class="p2" d="M 895 689 L 908 689 L 908 668 L 895 668 L 895 689"/>
  <path class="p2" d="M 908 689 L 920 689 L 920 668 L 908 668 L 908 689"/>
  <path class="p2" d="M 694 626 L 706 626 L 706 605 L 694 605 L 694 626"/>
  <path class="p2" d="M 706 626 L 719 626 L 719 605 L 706 605 L 706 626"/>
  <path class="p2" d="M 694 605 L 706 605 L 706 584 L 694 584 L 694 605"/>
  <path class="p2" d="M 706 605 L 719 605 L 719 584 L 706 584 L 706 605"/>
  <path class="p2" d="M 568 836 L 580 836 L 580 815 L 568 815 L 568 836"/>
  <path class="p2" d="M 580 836 L 593 836 L 593 815 L 580 815 L 580 836"/>
  <path class="p2" d="M 568 815 L 580 815 L 580 794 L 568 794 L 568 815"/>
  <path class="p2" d="M 580 815 L 593 815 L 593 794 L 580 794 L 580 815"/>
  <path class="p2" d="M 643 626 L 656 626 L 656 605 L 643 605 L 643 626"/>
  <path class="p2" d="M 656 626 L 668 626 L 668 605 L 656 605 L 656 626"/>
  <path class="p2" d="M 643 605 L 656 605 L 656 584 L 643 584 L 643 605"/>
  <path class="p2" d="M 656 605 L 668 605 L 668 584 L 656 584 L 656 605"/>
  <path class="p2" d="M 794 668 L 807 668 L 807 647 L 794 647 L 794 668"/>
  <path class="p2" d="M 807 668 L 820 668 L 820 647 L 807 647 L 807 668"/>
  <path class="p2" d="M 794 647 L 807 647 L 807 626 L 794 626 L 794 647"/>
  <path class="p2" d="M 807 647 L 820 647 L 820 626 L 807 626 L 807 647"/>
  <path class="p2" d="M 820 668 L 832 668 L 832 647 L 820 647 L 820 668"/>
  <path class="p2" d="M 832 668 L 845 668 L 845 647 L 832 647 L 832 668"/>
  <path class="p2" d="M 820 647 L 832 647 L 832 626 L 820 626 L 820 647"/>
  <path class="p2" d="M 832 647 L 845 647 L 845 626 L 832 626 L 832 647"/>
  <path class="p2" d="M 845 668 L 857 668 L 857 647 L 845 647 L 845 668"/>
  <path class="p2" d="M 857 668 L 870 668 L 870 647 L 857 647 L 857 668"/>
  <path class="p2" d="M 845 647 L 857 647 L 857 626 L 845 626 L 845 647"/>
  <path class="p2" d="M 857 647 L 870 647 L 870 626 L 857 626 L 857 647"/>
  <path class="p2" d="M 870 668 L 883 668 L 883 647 L 870 647 L 870 668"/>
  <path class="p2" d="M 883 668 L 895 668 L 895 647 L 883 647 L 883 668"/>
  <path class="p2" d="M 870 647 L 883 647 L 883 626 L 870 626 L 870 647"/>
  <path class="p2" d="M 883 647 L 895 647 L 895 626 L 883 626 L 883 647"/>
  <path class="p2" d="M 593 836 L 605 836 L 605 815 L 593 815 L 593 836"/>
  <path class="p2" d="M 605 836 L 618 836 L 618 815 L 605 815 L 605 836"/>
  <path class="p2" d="M 593 815 L 605 815 L 605 794 L 593 794 L 593 815"/>
  <path class="p2" d="M 605 815 L 618 815 L 618 794 L 605 794 L 605 815"/>
  <path class="p2" d="M 820 626 L 832 626 L 832 605 L 820 605 L 820 626"/>
  <path class="p2" d="M 832 626 L 845 626 L 845 605 L 832 605 L 832 626"/>
  <path class="p2" d="M 820 605 L 832 605 L 832 584 L 820 584 L 820 605"/>
  <path class="p2" d="M 832 605 L 845 605 L 845 584 L 832 584 L 832 605"/>
  <path class="p2" d="M 895 668 L 908 668 L 908 647 L 895 647 L 895 668"/>
  <path class="p2" d="M 908 668 L 920 668 L 920 647 L 908 647 L 908 668"/>
  <path class="p2" d="M 895 647 L 908 647 L 908 626 L 895 626 L 895 647"/>
  <path class="p2" d="M 908 647 L 920 647 L 920 626 L 908 626 L 908 647"/>
  <path class="p2" d="M 920 668 L 933 668 L 933 647 L 920 647 L 920 668"/>
  <path class="p2" d="M 933 668 L 946 668 L 946 647 L 933 647 L 933 668"/>
  <path class="p2" d="M 920 647 L 933 647 L 933 626 L 920 626 L 920 647"/>
  <path class="p2" d="M 933 647 L 946 647 L 946 626 L 933 626 L 933 647"/>
  <path class="p2" d="M 643 710 L 656 710 L 656 689 L 643 689 L 643 710"/>
  <path class="p2" d="M 656 710 L 668 710 L 668 689 L 656 689 L 656 710"/>
  <path class="p2" d="M 643 689 L 656 689 L 656 668 L 643 668 L 643 689"/>
  <path class="p2" d="M 656 689 L 668 689 L 668 668 L 656 668 L 656 689"/>
  <path class="p2" d="M 593 920 L 605 920 L 605 899 L 593 899 L 593 920"/>
  <line x1="593" y1="920" x2="605" y2="920"/>
  <path class="p2" d="M 605 920 L 618 920 L 618 899 L 605 899 L 605 920"/>
  <line x1="605" y1="920" x2="618" y2="920"/>
  <path class="p2" d="M 593 899 L 605 899 L 605 878 L 593 878 L 593 899"/>
  <path class="p2" d="M 605 899 L 618 899 L 618 878 L 605 878 L 605 899"/>
  <path class="p2" d="M 794 584 L 807 584 L 807 563 L 794 563 L 794 584"/>
  <path class="p2" d="M 807 584 L 820 584 L 820 563 L 807 563 L 807 584"/>
  <path class="p2" d="M 794 563 L 807 563 L 807 542 L 794 542 L 794 563"/>
  <path class="p2" d="M 807 563 L 820 563 L 820 542 L 807 542 L 807 563"/>
  <path class="p2" d="M 794 626 L 807 626 L 807 605 L 794 605 L 794 626"/>
  <path class="p2" d="M 807 626 L 820 626 L 820 605 L 807 605 L 807 626"/>
  <path class="p2" d="M 794 605 L 807 605 L 807 584 L 794 584 L 794 605"/>
  <path class="p2" d="M 807 605 L 820 605 L 820 584 L 807 584 L 807 605"/>
  <path class="p2" d="M 744 584 L 757 584 L 757 563 L 744 563 L 744 584"/>
  <path class="p2" d="M 757 584 L 769 584 L 769 563 L 757 563 L 757 584"/>
  <path class="p2" d="M 744 563 L 757 563 L 757 542 L 744 542 L 744 563"/>
  <path class="p2" d="M 757 563 L 769 563 L 769 542 L 757 542 L 757 563"/>
  <path class="p2" d="M 769 584 L 782 584 L 782 563 L 769 563 L 769 584"/>
  <path class="p2" d="M 782 584 L 794 584 L 794 563 L 782 563 L 782 584"/>
  <path class="p2" d="M 769 563 L 782 563 L 782 542 L 769 542 L 769 563"/>
  <path class="p2" d="M 782 563 L 794 563 L 794 542 L 782 542 L 782 563"/>
  <path class="p2" d="M 668 668 L 681 668 L 681 647 L 668 647 L 668 668"/>
  <path class="p2" d="M 681 668 L 694 668 L 694 647 L 681 647 L 681 668"/>
  <path class="p2" d="M 668 647 L 681 647 L 681 626 L 668 626 L 668 647"/>
  <path class="p2" d="M 681 647 L 694 647 L 694 626 L 681 626 L 681 647"/>
  <path class="p2" d="M 946 668 L 958 668 L 958 647 L 946 647 L 946 668"/>
  <path class="p2" d="M 958 668 L 971 668 L 971 647 L 958 647 L 958 668"/>
  <path class="p2" d="M 946 647 L 958 647 L 958 626 L 946 626 L 946 647"/>
  <path class="p2" d="M 958 647 L 971 647 L 971 626 L 958 626 L 958 647"/>
  <path class="p2" d="M 593 752 L 605 752 L 605 731 L 593 731 L 593 752"/>
  <path class="p2" d="M 605 752 L 618 752 L 618 731 L 605 731 L 605 752"/>
  <path class="p2" d="M 593 731 L 605 731 L 605 710 L 593 710 L 593 731"/>
  <path class="p2" d="M 605 731 L 618 731 L 618 710 L 605 710 L 605 731"/>
  <path class="p2" d="M 870 626 L 883 626 L 883 605 L 870 605 L 870 626"/>
  <path class="p2" d="M 883 626 L 895 626 L 895 605 L 883 605 L 883 626"/>
  <path class="p2" d="M 870 605 L 883 605 L 883 584 L 870 584 L 870 605"/>
  <path class="p2" d="M 883 605 L 895 605 L 895 584 L 883 584 L 883 605"/>
  <path class="p2" d="M 895 626 L 908 626 L 908 605 L 895 605 L 895 626"/>
  <path class="p2" d="M 908 626 L 920 626 L 920 605 L 908 605 L 908 626"/>
  <path class="p2" d="M 895 605 L 908 605 L 908 584 L 895 584 L 895 605"/>
  <path class="p2" d="M 908 605 L 920 605 L 920 584 L 908 584 L 908 605"/>
  <path class="p2" d="M 920 626 L 933 626 L 933 605 L 920 605 L 920 626"/>
  <path class="p2" d="M 933 626 L 946 626 L 946 605 L 933 605 L 933 626"/>
  <path class="p2" d="M 920 605 L 933 605 L 933 584 L 920 584 L 920 605"/>
  <path class="p2" d="M 933 605 L 946 605 L 946 584 L 933 584 L 933 605"/>
  <path class="p2" d="M 694 542 L 706 542 L 706 521 L 694 521 L 694 542"/>
  <path class="p2" d="M 706 542 L 719 542 L 719 521 L 706 521 L 706 542"/>
  <path class="p2" d="M 694 521 L 706 521 L 706 500 L 694 500 L 694 521"/>
  <path class="p2" d="M 706 521 L 719 521 L 719 500 L 706 500 L 706 521"/>
  <path class="p2" d="M 946 626 L 958 626 L 958 605 L 946 605 L 946 626"/>
  <path class="p2" d="M 958 626 L 971 626 L 971 605 L 958 605 L 958 626"/>
  <path class="p2" d="M 946 605 L 958 605 L 958 584 L 946 584 L 946 605"/>
  <path class="p2" d="M 958 605 L 971 605 L 971 584 L 958 584 L 958 605"/>
  <path class="p2" d="M 971 626 L 983 626 L 983 605 L 971 605 L 971 626"/>
  <path class="p2" d="M 983 626 L 996 626 L 996 605 L 983 605 L 983 626"/>
  <path class="p2" d="M 971 605 L 983 605 L 983 584 L 971 584 L 971 605"/>
  <path class="p2" d="M 983 605 L 996 605 L 996 584 L 983 584 L 983 605"/>
  <path class="p2" d="M 719 584 L 731 584 L 731 563 L 719 563 L 719 584"/>
  <path class="p2" d="M 731 584 L 744 584 L 744 563 L 731 563 L 731 584"/>
  <path class="p2" d="M 719 563 L 731 563 L 731 542 L 719 542 L 719 563"/>
  <path class="p2" d="M 731 563 L 744 563 L 744 542 L 731 542 L 731 563"/>
  <path class="p2" d="M 996 626 L 1009 626 L 1009 605 L 996 605 L 996 626"/>
  <path class="p2" d="M 1009 626 L 1021 626 L 1021 605 L 1009 605 L 1009 626"/>
  <path class="p2" d="M 996 605 L 1009 605 L 1009 584 L 996 584 L 996 605"/>
  <path class="p2" d="M 1009 605 L 1021 605 L 1021 584 L 1009 584 L 1009 605"/>
  <path class="p2" d="M 1021 626 L 1034 626 L 1034 605 L 1021 605 L 1021 626"/>
  <path class="p2" d="M 1034 626 L 1046 626 L 1046 605 L 1034 605 L 1034 626"/>
  <path class="p2" d="M 1021 605 L 1034 605 L 1034 584 L 1021 584 L 1021 605"/>
  <path class="p2" d="M 1034 605 L 1046 605 L 1046 584 L 1034 584 L 1034 605"/>
  <path class="p2" d="M 794 542 L 807 542 L 807 521 L 794 521 L 794 542"/>
  <path class="p2" d="M 807 542 L 820 542 L 820 521 L 807 521 L 807 542"/>
  <path class="p2" d="M 794 521 L 807 521 L 807 500 L 794 500 L 794 521"/>
  <path class="p2" d="M 807 521 L 820 521 L 820 500 L 807 500 L 807 521"/>
  <path class="p2" d="M 820 542 L 832 542 L 832 521 L 820 521 L 820 542"/>
  <path class="p2" d="M 832 542 L 845 542 L 845 521 L 832 521 L 832 542"/>
  <path class="p2" d="M 820 521 L 832 521 L 832 500 L 820 500 L 820 521"/>
  <path class="p2" d="M 832 521 L 845 521 L 845 500 L 832 500 L 832 521"/>
  <path class="p2" d="M 845 626 L 857 626 L 857 605 L 845 605 L 845 626"/>
  <path class="p2" d="M 857 626 L 870 626 L 870 605 L 857 605 L 857 626"/>
  <path class="p2" d="M 845 605 L 857 605 L 857 584 L 845 584 L 845 605"/>
  <path class="p2" d="M 857 605 L 870 605 L 870 584 L 857 584 L 857 605"/>
  <path class="p2" d="M 744 542 L 757 542 L 757 521 L 744 521 L 744 542"/>
  <path class="p2" d="M 757 542 L 769 542 L 769 521 L 757 521 L 757 542"/>
  <path class="p2" d="M 744 521 L 757 521 L 757 500 L 744 500 L 744 521"/>
  <path class="p2" d="M 757 521 L 769 521 L 769 500 L 757 500 L 757 521"/>
  <path class="p2" d="M 769 542 L 782 542 L 782 521 L 769 521 L 769 542"/>
  <path class="p2" d="M 782 542 L 794 542 L 794 521 L 782 521 L 782 542"/>
  <path class="p2" d="M 769 521 L 782 521 L 782 500 L 769 500 L 769 521"/>
  <path class="p2" d="M 782 521 L 794 521 L 794 500 L 782 500 L 782 521"/>
  <path class="p2" d="M 643 668 L 656 668 L 656 647 L 643 647 L 643 668"/>
  <path class="p2" d="M 656 668 L 668 668 L 668 647 L 656 647 L 656 668"/>
  <path class="p2" d="M 643 647 L 656 647 L 656 626 L 643 626 L 643 647"/>
  <path class="p2" d="M 656 647 L 668 647 L 668 626 L 656 626 L 656 647"/>
  <path class="p2" d="M 668 626 L 681 626 L 681 605 L 668 605 L 668 626"/>
  <path class="p2" d="M 681 626 L 694 626 L 694 605 L 681 605 L 681 626"/>
  <path class="p2" d="M 668 605 L 681 605 L 681 584 L 668 584 L 668 605"/>
  <path class="p2" d="M 681 605 L 694 605 L 694 584 L 681 584 L 681 605"/>
  <path class="p2" d="M 618 710 L 631 710 L 631 689 L 618 689 L 618 710"/>
  <path class="p2" d="M 631 710 L 643 710 L 643 689 L 631 689 L 631 710"/>
  <path class="p2" d="M 618 689 L 631 689 L 631 668 L 618 668 L 618 689"/>
  <path class="p2" d="M 631 689 L 643 689 L 643 668 L 631 668 L 631 689"/>
  <path class="p2" d="M 946 542 L 958 542 L 958 521 L 946 521 L 946 542"/>
  <path class="p2" d="M 958 542 L 971 542 L 971 521 L 958 521 L 958 542"/>
  <path class="p2" d="M 946 521 L 958 521 L 958 500 L 946 500 L 946 521"/>
  <path class="p2" d="M 958 521 L 971 521 L 971 500 L 958 500 L 958 521"/>
  <path class="p2" d="M 996 542 L 1009 542 L 1009 521 L 996 521 L 996 542"/>
  <path class="p2" d="M 1009 542 L 1021 542 L 1021 521 L 1009 521 L 1009 542"/>
  <path class="p2" d="M 996 521 L 1009 521 L 1009 500 L 996 500 L 996 521"/>
  <path class="p2" d="M 1009 521 L 1021 521 L 1021 500 L 1009 500 L 1009 521"/>
  <path class="p2" d="M 845 584 L 857 584 L 857 563 L 845 563 L 845 584"/>
  <path class="p2" d="M 857 584 L 870 584 L 870 563 L 857 563 L 857 584"/>
  <path class="p2" d="M 845 563 L 857 563 L 857 542 L 845 542 L 845 563"/>
  <path class="p2" d="M 857 563 L 870 563 L 870 542 L 857 542 L 857 563"/>
  <path class="p2" d="M 820 500 L 832 500 L 832 479 L 820 479 L 820 500"/>
  <path class="p2" d="M 832 500 L 845 500 L 845 479 L 832 479 L 832 500"/>
  <path class="p2" d="M 820 479 L 832 479 L 832 458 L 820 458 L 820 479"/>
  <path class="p2" d="M 832 479 L 845 479 L 845 458 L 832 458 L 832 479"/>
  <path class="p2" d="M 820 584 L 832 584 L 832 563 L 820 563 L 820 584"/>
  <path class="p2" d="M 832 584 L 845 584 L 845 563 L 832 563 L 832 584"/>
  <path class="p2" d="M 820 563 L 832 563 L 832 542 L 820 542 L 820 563"/>
  <path class="p2" d="M 832 563 L 845 563 L 845 542 L 832 542 L 832 563"/>
  <path class="p2" d="M 870 584 L 883 584 L 883 563 L 870 563 L 870 584"/>
  <path class="p2" d="M 883 584 L 895 584 L 895 563 L 883 563 L 883 584"/>
  <path class="p2" d="M 870 563 L 883 563 L 883 542 L 870 542 L 870 563"/>
  <path class="p2" d="M 883 563 L 895 563 L 895 542 L 883 542 L 883 563"/>
  <path class="p2" d="M 895 584 L 908 584 L 908 563 L 895 563 L 895 584"/>
  <path class="p2" d="M 908 584 L 920 584 L 920 563 L 908 563 L 908 584"/>
  <path class="p2" d="M 895 563 L 908 563 L 908 542 L 895 542 L 895 563"/>
  <path class="p2" d="M 908 563 L 920 563 L 920 542 L 908 542 L 908 563"/>
  <path class="p2" d="M 920 584 L 933 584 L 933 563 L 920 563 L 920 584"/>
  <path class="p2" d="M 933 584 L 946 584 L 946 563 L 933 563 L 933 584"/>
  <path class="p2" d="M 920 563 L 933 563 L 933 542 L 920 542 L 920 563"/>
  <path class="p2" d="M 933 563 L 946 563 L 946 542 L 933 542 L 933 563"/>
  <path class="p2" d="M 719 794 L 731 794 L 731 773 L 719 773 L 719 794"/>
  <path class="p2" d="M 731 794 L 744 794 L 744 773 L 731 773 L 731 794"/>
  <line x1="744" y1="794" x2="744" y2="773"/>
  <path class="p2" d="M 719 773 L 731 773 L 731 752 L 719 752 L 719 773"/>
  <path class="p2" d="M 731 773 L 744 773 L 744 752 L 731 752 L 731 773"/>
  <line x1="744" y1="773" x2="744" y2="752"/>
  <path class="p2" d="M 946 584 L 958 584 L 958 563 L 946 563 L 946 584"/>
  <path class="p2" d="M 958 584 L 971 584 L 971 563 L 958 563 L 958 584"/>
  <path class="p2" d="M 946 563 L 958 563 L 958 542 L 946 542 L 946 563"/>
  <path class="p2" d="M 958 563 L 971 563 L 971 542 L 958 542 L 958 563"/>
  <path class="p2" d="M 971 584 L 983 584 L 983 563 L 971 563 L 971 584"/>
  <path class="p2" d="M 983 584 L 996 584 L 996 563 L 983 563 L 983 584"/>
  <path class="p2" d="M 971 563 L 983 563 L 983 542 L 971 542 L 971 563"/>
  <path class="p2" d="M 983 563 L 996 563 L 996 542 L 983 542 L 983 563"/>
  <path class="p2" d="M 996 584 L 1009 584 L 1009 563 L 996 563 L 996 584"/>
  <path class="p2" d="M 1009 584 L 1021 584 L 1021 563 L 1009 563 L 1009 584"/>
  <path class="p2" d="M 996 563 L 1009 563 L 1009 542 L 996 542 L 996 563"/>
  <path class="p2" d="M 1009 563 L 1021 563 L 1021 542 L 1009 542 L 1009 563"/>
  <path class="p2" d="M 1021 584 L 1034 584 L 1034 563 L 1021 563 L 1021 584"/>
  <path class="p2" d="M 1034 584 L 1046 584 L 1046 563 L 1034 563 L 1034 584"/>
  <path class="p2" d="M 1021 563 L 1034 563 L 1034 542 L 1021 542 L 1021 563"/>
  <path class="p2" d="M 1034 563 L 1046 563 L 1046 542 L 1034 542 L 1034 563"/>
  <path class="p2" d="M 794 500 L 807 500 L 807 479 L 794 479 L 794 500"/>
  <path class="p2" d="M 807 500 L 820 500 L 820 479 L 807 479 L 807 500"/>
  <path class="p2" d="M 794 479 L 807 479 L 807 458 L 794 458 L 794 479"/>
  <path class="p2" d="M 807 479 L 820 479 L 820 458 L 807 458 L 807 479"/>
  <path class="p2" d="M 1046 584 L 1059 584 L 1059 563 L 1046 563 L 1046 584"/>
  <path class="p2" d="M 1059 584 L 1072 584 L 1072 563 L 1059 563 L 1059 584"/>
  <path class="p2" d="M 1046 563 L 1059 563 L 1059 542 L 1046 542 L 1046 563"/>
  <path class="p2" d="M 1059 563 L 1072 563 L 1072 542 L 1059 542 L 1059 563"/>
  <path class="p2" d="M 1072 584 L 1084 584 L 1084 563 L 1072 563 L 1072 584"/>
  <path class="p2" d="M 1084 584 L 1097 584 L 1097 563 L 1084 563 L 1084 584"/>
  <path class="p2" d="M 1072 563 L 1084 563 L 1084 542 L 1072 542 L 1072 563"/>
  <path class="p2" d="M 1084 563 L 1097 563 L 1097 542 L 1084 542 L 1084 563"/>
  <path class="p2" d="M 845 500 L 857 500 L 857 479 L 845 479 L 845 500"/>
  <path class="p2" d="M 857 500 L 870 500 L 870 479 L 857 479 L 857 500"/>
  <path class="p2" d="M 845 479 L 857 479 L 857 458 L 845 458 L 845 479"/>
  <path class="p2" d="M 857 479 L 870 479 L 870 458 L 857 458 L 857 479"/>
  <path class="p2" d="M 845 458 L 857 458 L 857 437 L 845 437 L 845 458"/>
  <path class="p2" d="M 857 458 L 870 458 L 870 437 L 857 437 L 857 458"/>
  <path class="p2" d="M 845 437 L 857 437 L 857 416 L 845 416 L 845 437"/>
  <path class="p2" d="M 857 437 L 870 437 L 870 416 L 857 416 L 857 437"/>
  <path class="p2" d="M 870 458 L 883 458 L 883 437 L 870 437 L 870 458"/>
  <path class="p2" d="M 883 458 L 895 458 L 895 437 L 883 437 L 883 458"/>
  <path class="p2" d="M 870 437 L 883 437 L 883 416 L 870 416 L 870 437"/>
  <path class="p2" d="M 883 437 L 895 437 L 895 416 L 883 416 L 883 437"/>
  <path class="p2" d="M 719 542 L 731 542 L 731 521 L 719 521 L 719 542"/>
  <path class="p2" d="M 731 542 L 744 542 L 744 521 L 731 521 L 731 542"/>
  <path class="p2" d="M 719 521 L 731 521 L 731 500 L 719 500 L 719 521"/>
  <path class="p2" d="M 731 521 L 744 521 L 744 500 L 731 500 L 731 521"/>
  <path class="p2" d="M 568 920 L 580 920 L 580 899 L 568 899 L 568 920"/>
  <line x1="568" y1="920" x2="580" y2="920"/>
  <path class="p2" d="M 580 920 L 593 920 L 593 899 L 580 899 L 580 920"/>
  <line x1="580" y1="920" x2="593" y2="920"/>
  <path class="p2" d="M 568 899 L 580 899 L 580 878 L 568 878 L 568 899"/>
  <path class="p2" d="M 580 899 L 593 899 L 593 878 L 580 878 L 580 899"/>
  <path class="p2" d="M 568 878 L 580 878 L 580 857 L 568 857 L 568 878"/>
  <path class="p2" d="M 580 878 L 593 878 L 593 857 L 580 857 L 580 878"/>
  <path class="p2" d="M 568 857 L 580 857 L 580 836 L 568 836 L 568 857"/>
  <path class="p2" d="M 580 857 L 593 857 L 593 836 L 580 836 L 580 857"/>
  <path class="p2" d="M 845 542 L 857 542 L 857 521 L 845 521 L 845 542"/>
  <path class="p2" d="M 857 542 L 870 542 L 870 521 L 857 521 L 857 542"/>
  <path class="p2" d="M 845 521 L 857 521 L 857 500 L 845 500 L 845 521"/>
  <path class="p2" d="M 857 521 L 870 521 L 870 500 L 857 500 L 857 521"/>
  <path class="p2" d="M 870 542 L 883 542 L 883 521 L 870 521 L 870 542"/>
  <path class="p2" d="M 883 542 L 895 542 L 895 521 L 883 521 L 883 542"/>
  <path class="p2" d="M 870 521 L 883 521 L 883 500 L 870 500 L 870 521"/>
  <path class="p2" d="M 883 521 L 895 521 L 895 500 L 883 500 L 883 521"/>
  <path class="p2" d="M 895 542 L 908 542 L 908 521 L 895 521 L 895 542"/>
  <path class="p2" d="M 908 542 L 920 542 L 920 521 L 908 521 L 908 542"/>
  <path class="p2" d="M 895 521 L 908 521 L 908 500 L 895 500 L 895 521"/>
  <path class="p2" d="M 908 521 L 920 521 L 920 500 L 908 500 L 908 521"/>
  <path class="p2" d="M 920 542 L 933 542 L 933 521 L 920 521 L 920 542"/>
  <path class="p2" d="M 933 542 L 946 542 L 946 521 L 933 521 L 933 542"/>
  <path class="p2" d="M 920 521 L 933 521 L 933 500 L 920 500 L 920 521"/>
  <path class="p2" d="M 933 521 L 946 521 L 946 500 L 933 500 L 933 521"/>
  <path class="p2" d="M 971 542 L 983 542 L 983 521 L 971 521 L 971 542"/>
  <path class="p2" d="M 983 542 L 996 542 L 996 521 L 983 521 L 983 542"/>
  <path class="p2" d="M 971 521 L 983 521 L 983 500 L 971 500 L 971 521"/>
  <path class="p2" d="M 983 521 L 996 521 L 996 500 L 983 500 L 983 521"/>
  <path class="p2" d="M 1021 542 L 1034 542 L 1034 521 L 1021 521 L 1021 542"/>
  <path class="p2" d="M 1034 542 L 1046 542 L 1046 521 L 1034 521 L 1034 542"/>
  <path class="p2" d="M 1021 521 L 1034 521 L 1034 500 L 1021 500 L 1021 521"/>
  <path class="p2" d="M 1034 521 L 1046 521 L 1046 500 L 1034 500 L 1034 521"/>
  <path class="p2" d="M 820 458 L 832 458 L 832 437 L 820 437 L 820 458"/>
  <path class="p2" d="M 832 458 L 845 458 L 845 437 L 832 437 L 832 458"/>
  <path class="p2" d="M 820 437 L 832 437 L 832 416 L 820 416 L 820 437"/>
  <path class="p2" d="M 832 437 L 845 437 L 845 416 L 832 416 L 832 437"/>
  <path class="p2" d="M 1072 542 L 1084 542 L 1084 521 L 1072 521 L 1072 542"/>
  <path class="p2" d="M 1084 542 L 1097 542 L 1097 521 L 1084 521 L 1084 542"/>
  <path class="p2" d="M 1072 521 L 1084 521 L 1084 500 L 1072 500 L 1072 521"/>
  <path class="p2" d="M 1084 521 L 1097 521 L 1097 500 L 1084 500 L 1084 521"/>
  <path class="p2" d="M 769 500 L 782 500 L 782 479 L 769 479 L 769 500"/>
  <path class="p2" d="M 782 500 L 794 500 L 794 479 L 782 479 L 782 500"/>
  <path class="p2" d="M 769 479 L 782 479 L 782 458 L 769 458 L 769 479"/>
  <path class="p2" d="M 782 479 L 794 479 L 794 458 L 782 458 L 782 479"/>
  <path class="p2" d="M 1122 542 L 1135 542 L 1135 521 L 1122 521 L 1122 542"/>
  <path class="p2" d="M 1135 542 L 1147 542 L 1147 521 L 1135 521 L 1135 542"/>
  <path class="p2" d="M 1122 521 L 1135 521 L 1135 500 L 1122 500 L 1122 521"/>
  <path class="p2" d="M 1135 521 L 1147 521 L 1147 500 L 1135 500 L 1135 521"/>
  <path class="p2" d="M 794 458 L 807 458 L 807 437 L 794 437 L 794 458"/>
  <path class="p2" d="M 807 458 L 820 458 L 820 437 L 807 437 L 807 458"/>
  <path class="p2" d="M 794 437 L 807 437 L 807 416 L 794 416 L 794 437"/>
  <path class="p2" d="M 807 437 L 820 437 L 820 416 L 807 416 L 807 437"/>
  <path class="p2" d="M 668 584 L 681 584 L 681 563 L 668 563 L 668 584"/>
  <path class="p2" d="M 681 584 L 694 584 L 694 563 L 681 563 L 681 584"/>
  <path class="p2" d="M 668 563 L 681 563 L 681 542 L 668 542 L 668 563"/>
  <path class="p2" d="M 681 563 L 694 563 L 694 542 L 681 542 L 681 563"/>
  <path class="p2" d="M 1046 542 L 1059 542 L 1059 521 L 1046 521 L 1046 542"/>
  <path class="p2" d="M 1059 542 L 1072 542 L 1072 521 L 1059 521 L 1059 542"/>
  <path class="p2" d="M 1046 521 L 1059 521 L 1059 500 L 1046 500 L 1046 521"/>
  <path class="p2" d="M 1059 521 L 1072 521 L 1072 500 L 1059 500 L 1059 521"/>
  <path class="p2" d="M 744 500 L 757 500 L 757 479 L 744 479 L 744 500"/>
  <path class="p2" d="M 757 500 L 769 500 L 769 479 L 757 479 L 757 500"/>
  <path class="p2" d="M 744 479 L 757 479 L 757 458 L 744 458 L 744 479"/>
  <path class="p2" d="M 757 479 L 769 479 L 769 458 L 757 458 L 757 479"/>
  <path class="p2" d="M 1097 542 L 1109 542 L 1109 521 L 1097 521 L 1097 542"/>
  <path class="p2" d="M 1109 542 L 1122 542 L 1122 521 L 1109 521 L 1109 542"/>
  <path class="p2" d="M 1097 521 L 1109 521 L 1109 500 L 1097 500 L 1097 521"/>
  <path class="p2" d="M 1109 521 L 1122 521 L 1122 500 L 1109 500 L 1109 521"/>
  <path class="p2" d="M 870 416 L 883 416 L 883 395 L 870 395 L 870 416"/>
  <path class="p2" d="M 883 416 L 895 416 L 895 395 L 883 395 L 883 416"/>
  <path class="p2" d="M 870 395 L 883 395 L 883 374 L 870 374 L 870 395"/>
  <path class="p2" d="M 883 395 L 895 395 L 895 374 L 883 374 L 883 395"/>
  <path class="p2" d="M 1147 542 L 1160 542 L 1160 521 L 1147 521 L 1147 542"/>
  <path class="p2" d="M 1160 542 L 1172 542 L 1172 521 L 1160 521 L 1160 542"/>
  <path class="p2" d="M 1147 521 L 1160 521 L 1160 500 L 1147 500 L 1147 521"/>
  <path class="p2" d="M 1160 521 L 1172 521 L 1172 500 L 1160 500 L 1160 521"/>
  <path class="p2" d="M 1172 542 L 1185 542 L 1185 521 L 1172 521 L 1172 542"/>
  <path class="p2" d="M 1185 542 L 1198 542 L 1198 521 L 1185 521 L 1185 542"/>
  <path class="p2" d="M 1172 521 L 1185 521 L 1185 500 L 1172 500 L 1172 521"/>
  <path class="p2" d="M 1185 521 L 1198 521 L 1198 500 L 1185 500 L 1185 521"/>

</svg>